<svg width="166" height="53" viewBox="0 0 166 53" fill="none" xmlns="http://www.w3.org/2000/svg">
<path d="M139.047 52.6399H26.32C11.7781 52.6399 0 40.8525 0 26.32C0 11.7781 11.7874 0 26.32 0H139.047C153.589 0 165.367 11.7874 165.367 26.32C165.367 40.8618 153.589 52.6399 139.047 52.6399Z" fill="#BFD019"/>
<path d="M81.9183 23.649C80.0171 23.649 78.5611 25.0958 78.5611 27.0063C78.5611 28.9075 80.1006 30.3635 81.9183 30.3635C83.8195 30.3635 85.2755 28.9167 85.2755 27.0063C85.2755 25.0123 83.8195 23.649 81.9183 23.649ZM81.9183 29.0002C80.9167 29.0002 80.0172 28.1841 80.0172 27.0063C80.0172 25.8285 80.926 25.0124 81.9183 25.0124C82.9106 25.0124 83.8195 25.8285 83.8195 27.0063C83.8195 28.1841 82.9199 29.0002 81.9183 29.0002ZM74.5733 23.649C72.6721 23.649 71.216 25.0958 71.216 27.0063C71.216 28.9075 72.7555 30.3635 74.5733 30.3635C76.4745 30.3635 77.9305 28.9167 77.9305 27.0063C77.9305 25.0123 76.391 23.649 74.5733 23.649ZM74.5733 29.0002C73.5717 29.0002 72.672 28.1841 72.672 27.0063C72.672 25.8285 73.5809 25.0124 74.5733 25.0124C75.5656 25.0124 76.4744 25.8285 76.4744 27.0063C76.3909 28.1841 75.5749 29.0002 74.5733 29.0002ZM65.7814 24.6507V26.0974H69.2221C69.1293 26.9135 68.8604 27.4607 68.406 27.9059C67.9515 28.3603 67.1354 28.9075 65.7814 28.9075C63.6947 28.9075 62.0625 27.1825 62.0625 25.1051C62.0625 23.0277 63.6947 21.3027 65.7814 21.3027C66.8665 21.3027 67.7753 21.7571 68.3225 22.3043L69.3241 21.3027C68.508 20.4866 67.3301 19.856 65.6979 19.856C62.7951 19.856 60.3467 22.2116 60.3467 25.1144C60.3467 28.0172 62.7951 30.3728 65.6979 30.3728C67.2374 30.3728 68.4152 29.8256 69.3241 28.926C70.2329 28.0172 70.5946 26.6631 70.5946 25.5688C70.5946 25.2071 70.5947 24.9382 70.5019 24.6599H65.7814V24.6507ZM101.682 25.7357C101.413 25.0123 100.596 23.5563 98.7787 23.5563C97.0537 23.5563 95.6069 24.9196 95.6069 26.9136C95.6069 28.8147 97.0537 30.2708 98.9641 30.2708C100.504 30.2708 101.413 29.3619 101.774 28.824L100.596 28.1006C100.235 28.6478 99.6875 29.0095 98.9641 29.0095C98.2408 29.0095 97.6936 28.6478 97.3319 28.0079L101.867 26.1067L101.682 25.7357ZM97.0537 26.9136C97.0537 25.643 98.0553 24.9196 98.7787 24.9196C99.4094 24.9196 99.8638 25.1886 100.049 25.643L97.0537 26.9136ZM93.4275 30.178H94.8743V20.2083H93.4275V30.178ZM90.9791 24.3817C90.6175 24.02 89.9776 23.6583 89.1707 23.6583C87.4457 23.6583 85.9062 25.1051 85.9062 27.0156C85.9062 28.9167 87.4457 30.3728 89.1707 30.3728C89.9869 30.3728 90.6175 30.0111 90.9791 29.6494H91.0719V30.1039C91.0719 31.3744 90.3485 32.0978 89.2635 32.0978C88.3546 32.0978 87.8167 31.4672 87.5385 30.92L86.2679 31.4671C86.6296 32.376 87.6312 33.4611 89.2635 33.4611C90.9884 33.4611 92.4352 32.4595 92.4352 29.9276V23.8531H91.0719L90.9791 24.3817ZM89.2635 29.0002C88.2618 29.0002 87.3622 28.1841 87.3622 27.0063C87.3622 25.8285 88.1784 24.9196 89.2635 24.9196C90.2651 24.9196 91.0719 25.8285 91.0719 27.0063C91.0719 28.1841 90.2558 29.0002 89.2635 29.0002ZM108.563 20.2083H105.029V30.178H106.476V26.4591H108.563C110.195 26.4591 111.827 25.2813 111.827 23.3801C111.827 21.4789 110.195 20.2083 108.563 20.2083ZM108.656 25.0124H106.476V21.6551H108.563C109.648 21.6551 110.288 22.564 110.288 23.3801C110.381 24.1035 109.75 25.0124 108.656 25.0124ZM117.726 23.5656C116.641 23.5656 115.546 24.02 115.101 25.1051L116.464 25.6523C116.733 25.1051 117.281 24.9289 117.828 24.9289C118.551 24.9289 119.367 25.3833 119.367 26.1994V26.2921C119.098 26.1067 118.551 25.9305 117.828 25.9305C116.381 25.9305 114.925 26.7466 114.925 28.1934C114.925 29.5567 116.103 30.3728 117.373 30.3728C118.375 30.3728 118.913 29.9183 119.275 29.3712H119.367V30.0946H120.814V26.2921C120.712 24.5579 119.441 23.5656 117.726 23.5656ZM117.54 29.0002C117.086 29.0002 116.362 28.7313 116.362 28.1841C116.362 27.4607 117.179 27.099 117.902 27.099C118.533 27.099 118.904 27.1917 119.265 27.4607C119.265 28.3696 118.449 29.0002 117.54 29.0002ZM125.97 23.8345L124.245 28.0913H124.153L122.428 23.8345H120.795L123.42 29.8164L121.881 33.1736H123.42L127.593 23.8345H125.97ZM112.643 30.178H114.09V20.2083H112.643V30.178Z" fill="white"/>
<path d="M39.4892 17.583C39.3037 17.852 39.2202 18.1302 39.2202 18.4919V32.7184C39.2202 33.0801 39.313 33.4417 39.4892 33.6272H39.5819L47.5577 25.6515V25.5587V25.466L39.4892 17.583Z" fill="white"/>
<path opacity="0.4" d="M50.1822 28.3688L47.5576 25.7442V25.6515V25.5587L50.1822 22.9341H50.2749L53.4467 24.7425C54.3555 25.2897 54.3555 26.1058 53.4467 26.6437L50.1822 28.3688Z" fill="white"/>
<path opacity="0.6" d="M50.2741 28.3697L47.5568 25.6523L39.5811 33.6281C39.85 33.9898 40.3972 33.9898 40.9444 33.6281L50.2741 28.3697Z" fill="white"/>
<path opacity="0.6" d="M50.275 22.9254L40.8525 17.5742C40.3054 17.2125 39.8509 17.3052 39.4893 17.5742L47.465 25.5499L50.275 22.9254Z" fill="white"/>
</svg>
