<svg width="166" height="53" viewBox="0 0 166 53" fill="none" xmlns="http://www.w3.org/2000/svg">
<path d="M139.242 52.6399H26.5153C11.9735 52.6399 0.195312 40.8525 0.195312 26.32C0.195312 11.7781 11.9827 0 26.5153 0H139.242C153.784 0 165.562 11.7874 165.562 26.32C165.562 40.8618 153.775 52.6399 139.242 52.6399Z" fill="#BFD019"/>
<path d="M55.414 25.3466C55.414 23.0003 57.38 21.7853 57.4728 21.7853C56.3506 20.1902 54.6627 19.912 54.0043 19.912C52.5946 19.7265 51.1942 20.7559 50.443 20.7559C49.6918 20.7559 48.5697 19.912 47.3548 19.912C45.7596 19.912 44.3592 20.8487 43.5153 22.2583C41.8274 25.1611 43.0423 29.3809 44.6374 31.718C45.3886 32.8401 46.3253 34.157 47.633 34.0643C48.8479 34.0643 49.3209 33.3131 50.7213 33.3131C52.1217 33.3131 52.5946 34.0643 53.8096 34.0643C55.1172 34.0643 55.8684 32.9421 56.6196 31.718C57.5563 30.4103 57.9272 29.0934 57.9272 29.0934C57.8437 29.0934 55.414 28.1567 55.414 25.3466Z" fill="white"/>
<path d="M53.0672 18.3168C53.7257 17.4729 54.0967 16.4435 54.0039 15.3213C53.0672 15.3213 51.9451 15.9797 51.2867 16.7309C50.7209 17.3894 50.1645 18.6043 50.2573 19.6337C51.2867 19.7265 52.4088 19.1608 53.0672 18.3168Z" fill="white"/>
<path d="M68.6099 20.6723H70.4716L74.3209 30.6665H72.4452L71.5074 28.021H67.5181L66.5803 30.6665H64.7746L68.6099 20.6723ZM67.994 26.6912H71.0455L69.5477 22.394H69.5057L67.994 26.6912ZM75.0906 23.4298H76.6024V24.4096H76.6304C76.8543 23.9897 77.1669 23.6911 77.5682 23.5138C77.9695 23.3271 78.4034 23.2338 78.87 23.2338C79.4392 23.2338 79.9338 23.3365 80.3537 23.5418C80.783 23.7377 81.1376 24.013 81.4175 24.3676C81.6975 24.7129 81.9074 25.1188 82.0474 25.5854C82.1874 26.052 82.2574 26.5512 82.2574 27.0831C82.2574 27.5684 82.1921 28.0396 82.0614 28.4969C81.9401 28.9541 81.7488 29.3601 81.4875 29.7147C81.2356 30.0599 80.9136 30.3399 80.5217 30.5545C80.1298 30.7598 79.6678 30.8625 79.1359 30.8625C78.9026 30.8625 78.6693 30.8391 78.4361 30.7925C78.2028 30.7552 77.9788 30.6898 77.7642 30.5965C77.5495 30.5032 77.3489 30.3866 77.1623 30.2466C76.985 30.0973 76.8357 29.9246 76.7144 29.7287H76.6864V33.34H75.0906V23.4298ZM80.6617 27.0551C80.6617 26.7285 80.6197 26.4113 80.5357 26.1033C80.4517 25.7954 80.3257 25.5247 80.1577 25.2915C79.9898 25.0488 79.7798 24.8575 79.5279 24.7176C79.2759 24.5682 78.9866 24.4936 78.66 24.4936C77.9881 24.4936 77.4796 24.7269 77.1343 25.1935C76.7983 25.6601 76.6304 26.2806 76.6304 27.0551C76.6304 27.4191 76.6724 27.7597 76.7564 28.077C76.8497 28.3849 76.985 28.6509 77.1623 28.8748C77.3396 29.0988 77.5495 29.2761 77.7922 29.4067C78.0441 29.5374 78.3334 29.6027 78.66 29.6027C79.024 29.6027 79.3319 29.528 79.5839 29.3787C79.8358 29.2294 80.0411 29.0381 80.1997 28.8048C80.3677 28.5622 80.4844 28.2916 80.5497 27.993C80.6243 27.685 80.6617 27.3724 80.6617 27.0551ZM83.6477 23.4298H85.1595V24.4096H85.1875C85.4114 23.9897 85.724 23.6911 86.1253 23.5138C86.5266 23.3271 86.9605 23.2338 87.4271 23.2338C87.9963 23.2338 88.4909 23.3365 88.9108 23.5418C89.3401 23.7377 89.6947 24.013 89.9746 24.3676C90.2546 24.7129 90.4645 25.1188 90.6045 25.5854C90.7445 26.052 90.8145 26.5512 90.8145 27.0831C90.8145 27.5684 90.7491 28.0396 90.6185 28.4969C90.4972 28.9541 90.3059 29.3601 90.0446 29.7147C89.7926 30.0599 89.4707 30.3399 89.0788 30.5545C88.6868 30.7598 88.2249 30.8625 87.693 30.8625C87.4597 30.8625 87.2264 30.8391 86.9931 30.7925C86.7598 30.7552 86.5359 30.6898 86.3213 30.5965C86.1066 30.5032 85.906 30.3866 85.7194 30.2466C85.5421 30.0973 85.3928 29.9246 85.2714 29.7287H85.2434V33.34H83.6477V23.4298ZM89.2187 27.0551C89.2187 26.7285 89.1768 26.4113 89.0928 26.1033C89.0088 25.7954 88.8828 25.5247 88.7148 25.2915C88.5469 25.0488 88.3369 24.8575 88.0849 24.7176C87.833 24.5682 87.5437 24.4936 87.2171 24.4936C86.5452 24.4936 86.0366 24.7269 85.6914 25.1935C85.3554 25.6601 85.1875 26.2806 85.1875 27.0551C85.1875 27.4191 85.2294 27.7597 85.3134 28.077C85.4067 28.3849 85.5421 28.6509 85.7194 28.8748C85.8967 29.0988 86.1066 29.2761 86.3492 29.4067C86.6012 29.5374 86.8905 29.6027 87.2171 29.6027C87.581 29.6027 87.889 29.528 88.1409 29.3787C88.3929 29.2294 88.5982 29.0381 88.7568 28.8048C88.9248 28.5622 89.0414 28.2916 89.1068 27.993C89.1814 27.685 89.2187 27.3724 89.2187 27.0551Z" fill="white"/>
<path d="M93.6813 27.3351C93.6813 27.7177 93.7467 28.0443 93.8773 28.3149C94.0079 28.5855 94.1899 28.8095 94.4232 28.9868C94.6565 29.1548 94.9225 29.2807 95.2211 29.3647C95.529 29.4394 95.8603 29.4767 96.2149 29.4767C96.5975 29.4767 96.9241 29.4347 97.1947 29.3507C97.4653 29.2574 97.6846 29.1408 97.8526 29.0008C98.0206 28.8608 98.1419 28.7022 98.2165 28.5249C98.2912 28.3382 98.3285 28.1516 98.3285 27.965C98.3285 27.5824 98.2399 27.3024 98.0626 27.1251C97.8946 26.9385 97.708 26.8079 97.5027 26.7332C97.1481 26.6026 96.7328 26.4812 96.2569 26.3693C95.7903 26.248 95.2117 26.094 94.5212 25.9073C94.0919 25.7954 93.7327 25.6507 93.4434 25.4734C93.1634 25.2868 92.9395 25.0815 92.7715 24.8575C92.6035 24.6336 92.4822 24.3956 92.4076 24.1437C92.3422 23.8917 92.3096 23.6351 92.3096 23.3738C92.3096 22.8699 92.4122 22.436 92.6175 22.072C92.8322 21.6988 93.1121 21.3908 93.4574 21.1482C93.8026 20.9056 94.1946 20.7283 94.6332 20.6163C95.0718 20.495 95.515 20.4343 95.9629 20.4343C96.4855 20.4343 96.9754 20.5043 97.4327 20.6443C97.8993 20.7749 98.3052 20.9755 98.6505 21.2462C99.0051 21.5168 99.285 21.8527 99.4903 22.254C99.6956 22.6459 99.7983 23.1032 99.7983 23.6257H98.0486C98.0019 22.9819 97.7826 22.5293 97.3907 22.268C96.9988 21.9974 96.4995 21.8621 95.8929 21.8621C95.6876 21.8621 95.4777 21.8854 95.2631 21.932C95.0484 21.9694 94.8525 22.0394 94.6752 22.142C94.4979 22.2353 94.3486 22.366 94.2272 22.5339C94.1153 22.7019 94.0593 22.9119 94.0593 23.1638C94.0593 23.5184 94.1666 23.7984 94.3812 24.0037C94.6052 24.1996 94.8945 24.349 95.2491 24.4516C95.2864 24.4609 95.431 24.5029 95.683 24.5776C95.9443 24.6429 96.2336 24.7176 96.5508 24.8015C96.8681 24.8855 97.1761 24.9695 97.4747 25.0535C97.7826 25.1281 98.0019 25.1841 98.1326 25.2215C98.4592 25.3241 98.7438 25.4641 98.9864 25.6414C99.229 25.8187 99.4297 26.024 99.5883 26.2573C99.7563 26.4812 99.8776 26.7239 99.9522 26.9852C100.036 27.2464 100.078 27.5077 100.078 27.769C100.078 28.3289 99.9616 28.8095 99.7283 29.2108C99.5043 29.6027 99.2057 29.9246 98.8324 30.1766C98.4592 30.4285 98.0346 30.6105 97.5587 30.7225C97.0827 30.8438 96.5975 30.9045 96.1029 30.9045C95.5337 30.9045 94.9971 30.8345 94.4932 30.6945C93.9893 30.5545 93.5507 30.3399 93.1774 30.0506C92.8042 29.7613 92.5055 29.3927 92.2816 28.9448C92.0576 28.4876 91.941 27.951 91.9316 27.3351H93.6813ZM100.658 23.4298H101.862V21.2602H103.458V23.4298H104.899V24.6196H103.458V28.4829C103.458 28.6509 103.462 28.7955 103.472 28.9168C103.49 29.0381 103.523 29.1408 103.57 29.2248C103.626 29.3087 103.705 29.3741 103.808 29.4207C103.91 29.4581 104.05 29.4767 104.228 29.4767C104.34 29.4767 104.452 29.4767 104.564 29.4767C104.676 29.4674 104.787 29.4487 104.899 29.4207V30.6525C104.722 30.6712 104.55 30.6898 104.382 30.7085C104.214 30.7272 104.041 30.7365 103.864 30.7365C103.444 30.7365 103.103 30.6992 102.842 30.6245C102.59 30.5405 102.389 30.4239 102.24 30.2746C102.1 30.1159 102.002 29.92 101.946 29.6867C101.899 29.4534 101.871 29.1874 101.862 28.8888V24.6196H100.658V23.4298ZM109.365 30.8625C108.786 30.8625 108.268 30.7692 107.811 30.5825C107.363 30.3866 106.981 30.1206 106.663 29.7847C106.355 29.4487 106.117 29.0475 105.949 28.5809C105.791 28.1143 105.711 27.601 105.711 27.0411C105.711 26.4906 105.791 25.982 105.949 25.5154C106.117 25.0488 106.355 24.6476 106.663 24.3116C106.981 23.9757 107.363 23.7144 107.811 23.5278C108.268 23.3318 108.786 23.2338 109.365 23.2338C109.943 23.2338 110.457 23.3318 110.905 23.5278C111.362 23.7144 111.744 23.9757 112.052 24.3116C112.37 24.6476 112.608 25.0488 112.766 25.5154C112.934 25.982 113.018 26.4906 113.018 27.0411C113.018 27.601 112.934 28.1143 112.766 28.5809C112.608 29.0475 112.37 29.4487 112.052 29.7847C111.744 30.1206 111.362 30.3866 110.905 30.5825C110.457 30.7692 109.943 30.8625 109.365 30.8625ZM109.365 29.6027C109.719 29.6027 110.027 29.528 110.289 29.3787C110.55 29.2294 110.765 29.0335 110.933 28.7908C111.1 28.5482 111.222 28.2776 111.296 27.979C111.38 27.671 111.422 27.3584 111.422 27.0411C111.422 26.7332 111.38 26.4253 111.296 26.1173C111.222 25.8094 111.1 25.5387 110.933 25.3055C110.765 25.0628 110.55 24.8669 110.289 24.7176C110.027 24.5682 109.719 24.4936 109.365 24.4936C109.01 24.4936 108.702 24.5682 108.441 24.7176C108.18 24.8669 107.965 25.0628 107.797 25.3055C107.629 25.5387 107.503 25.8094 107.419 26.1173C107.344 26.4253 107.307 26.7332 107.307 27.0411C107.307 27.3584 107.344 27.671 107.419 27.979C107.503 28.2776 107.629 28.5482 107.797 28.7908C107.965 29.0335 108.18 29.2294 108.441 29.3787C108.702 29.528 109.01 29.6027 109.365 29.6027ZM114.345 23.4298H115.842V24.8295H115.87C115.917 24.6336 116.006 24.4423 116.136 24.2556C116.276 24.069 116.44 23.901 116.626 23.7517C116.822 23.5931 117.037 23.4671 117.27 23.3738C117.504 23.2805 117.741 23.2338 117.984 23.2338C118.171 23.2338 118.297 23.2385 118.362 23.2478C118.437 23.2571 118.511 23.2665 118.586 23.2758V24.8155C118.474 24.7969 118.357 24.7829 118.236 24.7735C118.124 24.7549 118.012 24.7455 117.9 24.7455C117.63 24.7455 117.373 24.8015 117.13 24.9135C116.897 25.0162 116.692 25.1748 116.514 25.3894C116.337 25.5947 116.197 25.8514 116.094 26.1593C115.992 26.4672 115.94 26.8218 115.94 27.2231V30.6665H114.345V23.4298ZM123.989 26.4113C123.97 26.1593 123.914 25.9167 123.821 25.6834C123.737 25.4501 123.616 25.2495 123.457 25.0815C123.308 24.9042 123.121 24.7642 122.897 24.6616C122.682 24.5496 122.44 24.4936 122.169 24.4936C121.889 24.4936 121.633 24.5449 121.399 24.6476C121.175 24.7409 120.979 24.8762 120.811 25.0535C120.653 25.2215 120.522 25.4221 120.419 25.6554C120.326 25.8887 120.275 26.1406 120.265 26.4113H123.989ZM120.265 27.4611C120.265 27.741 120.303 28.0116 120.377 28.2729C120.461 28.5342 120.583 28.7628 120.741 28.9588C120.9 29.1548 121.101 29.3134 121.343 29.4347C121.586 29.5467 121.875 29.6027 122.211 29.6027C122.678 29.6027 123.051 29.5047 123.331 29.3087C123.62 29.1034 123.835 28.8002 123.975 28.3989H125.487C125.403 28.7908 125.258 29.1408 125.053 29.4487C124.847 29.7567 124.6 30.018 124.311 30.2326C124.021 30.4379 123.695 30.5919 123.331 30.6945C122.976 30.8065 122.603 30.8625 122.211 30.8625C121.642 30.8625 121.138 30.7692 120.699 30.5825C120.261 30.3959 119.888 30.1346 119.58 29.7987C119.281 29.4627 119.052 29.0615 118.894 28.5949C118.744 28.1283 118.67 27.615 118.67 27.0551C118.67 26.5419 118.749 26.0567 118.908 25.5994C119.076 25.1328 119.309 24.7269 119.608 24.3816C119.916 24.027 120.284 23.7471 120.713 23.5418C121.143 23.3365 121.628 23.2338 122.169 23.2338C122.738 23.2338 123.247 23.3551 123.695 23.5978C124.152 23.831 124.53 24.1437 124.829 24.5356C125.127 24.9275 125.342 25.3801 125.473 25.8933C125.613 26.3973 125.65 26.9198 125.585 27.4611H120.265Z" fill="white"/>
</svg>
