<svg width="203" height="65" viewBox="0 0 203 65" fill="none" xmlns="http://www.w3.org/2000/svg">
<path d="M170.145 64.1859H32.7121C14.9892 64.1859 0.619141 49.8158 0.619141 32.0929C0.619141 14.3701 14.9892 0 32.7121 0H170.145C187.868 0 202.238 14.3701 202.238 32.0929C202.238 49.8158 187.868 64.1859 170.145 64.1859Z" fill="white"/>
<path d="M58.8768 30.9071C58.8768 28.0528 61.2781 26.5652 61.3914 26.5652C60.0171 24.6245 57.9631 24.2771 57.1627 24.2771C55.4485 24.0506 53.7344 25.3041 52.8207 25.3041C51.907 25.3041 50.5327 24.2771 49.0526 24.2771C47.1119 24.2771 45.3978 25.4174 44.3708 27.1315C42.3169 30.673 43.7969 35.8155 45.7451 38.6699C46.6588 40.0442 47.7991 41.6375 49.4 41.5242C50.8876 41.5242 51.4539 40.6106 53.168 40.6106C54.8822 40.6106 55.4561 41.5242 56.9361 41.5242C58.537 41.5242 59.4507 40.1499 60.3644 38.6699C61.5046 37.069 61.9653 35.4681 61.9653 35.4681C61.852 35.4756 58.8768 34.3279 58.8768 30.9071Z" fill="black"/>
<path d="M56.0223 22.3365C56.8227 21.3095 57.2758 20.0484 57.1625 18.6816C56.0223 18.6816 54.6479 19.4821 53.8475 20.3958C53.1603 21.1962 52.4732 22.6838 52.594 23.9373C53.855 24.0506 55.2218 23.3635 56.0223 22.3365Z" fill="black"/>
<path d="M69.1591 24.2103V19.4588H70.5314C70.9088 19.4588 71.2261 19.5131 71.4834 19.6217C71.7407 19.7247 71.9494 19.879 72.1095 20.0849C72.2753 20.285 72.3925 20.5309 72.4612 20.8225C72.5355 21.1084 72.5727 21.4343 72.5727 21.8003C72.5727 22.1776 72.5326 22.5007 72.4526 22.7694C72.3782 23.0325 72.281 23.2526 72.161 23.4298C72.0409 23.6071 71.9037 23.7472 71.7493 23.8501C71.6006 23.953 71.4491 24.0331 71.2947 24.0903C71.1403 24.1417 70.9945 24.176 70.8573 24.1932C70.7201 24.2046 70.6057 24.2103 70.5142 24.2103H69.1591ZM68.3443 18.7726V24.8965H70.4456C70.9545 24.8965 71.3948 24.825 71.7664 24.6821C72.1381 24.5391 72.444 24.3333 72.6842 24.0645C72.9243 23.7901 73.1016 23.4556 73.2159 23.061C73.3303 22.6608 73.3875 22.2034 73.3875 21.6888C73.3875 20.7053 73.133 19.9734 72.6241 19.4931C72.1152 19.0128 71.3891 18.7726 70.4456 18.7726H68.3443ZM74.7949 22.6837C74.7949 22.4149 74.8292 22.1776 74.8978 21.9718C74.9722 21.7602 75.0722 21.583 75.198 21.44C75.3238 21.2971 75.4696 21.1884 75.6354 21.1141C75.807 21.0398 75.9871 21.0026 76.1758 21.0026C76.3645 21.0026 76.5417 21.0398 76.7076 21.1141C76.8791 21.1884 77.0278 21.2971 77.1535 21.44C77.2793 21.583 77.3765 21.7602 77.4452 21.9718C77.5195 22.1776 77.5567 22.4149 77.5567 22.6837C77.5567 22.9524 77.5195 23.1926 77.4452 23.4041C77.3765 23.61 77.2793 23.7844 77.1535 23.9273C77.0278 24.0645 76.8791 24.1703 76.7076 24.2446C76.5417 24.319 76.3645 24.3561 76.1758 24.3561C75.9871 24.3561 75.807 24.319 75.6354 24.2446C75.4696 24.1703 75.3238 24.0645 75.198 23.9273C75.0722 23.7844 74.9722 23.61 74.8978 23.4041C74.8292 23.1926 74.7949 22.9524 74.7949 22.6837ZM74.023 22.6837C74.023 23.0096 74.0688 23.3126 74.1602 23.5928C74.2517 23.873 74.389 24.1189 74.5719 24.3304C74.7549 24.5363 74.9808 24.6992 75.2495 24.8193C75.5182 24.9337 75.827 24.9908 76.1758 24.9908C76.5303 24.9908 76.8391 24.9337 77.1021 24.8193C77.3708 24.6992 77.5967 24.5363 77.7797 24.3304C77.9626 24.1189 78.0999 23.873 78.1913 23.5928C78.2828 23.3126 78.3286 23.0096 78.3286 22.6837C78.3286 22.3577 78.2828 22.0547 78.1913 21.7745C78.0999 21.4886 77.9626 21.2428 77.7797 21.0369C77.5967 20.8254 77.3708 20.6595 77.1021 20.5395C76.8391 20.4194 76.5303 20.3593 76.1758 20.3593C75.827 20.3593 75.5182 20.4194 75.2495 20.5395C74.9808 20.6595 74.7549 20.8254 74.5719 21.0369C74.389 21.2428 74.2517 21.4886 74.1602 21.7745C74.0688 22.0547 74.023 22.3577 74.023 22.6837ZM83.5795 24.8965L84.9946 20.4623H84.2399L83.245 24.0903H83.2278L82.3015 20.4623H81.5039L80.6119 24.0903H80.5947L79.5912 20.4623H78.785L80.2088 24.8965H80.9978L81.8898 21.3714H81.907L82.8075 24.8965H83.5795ZM85.6877 20.4623V24.8965H86.4168V22.3921C86.4168 22.1919 86.4425 22.009 86.494 21.8431C86.5511 21.6716 86.6341 21.5229 86.7427 21.3971C86.8513 21.2713 86.9857 21.1741 87.1458 21.1055C87.3116 21.0369 87.506 21.0026 87.729 21.0026C88.0092 21.0026 88.2293 21.0827 88.3894 21.2428C88.5495 21.4029 88.6296 21.6201 88.6296 21.8946V24.8965H89.3586V21.9804C89.3586 21.7402 89.3329 21.5229 89.2814 21.3285C89.2357 21.1284 89.1528 20.9569 89.0327 20.8139C88.9126 20.671 88.7554 20.5595 88.561 20.4794C88.3666 20.3994 88.1236 20.3593 87.832 20.3593C87.1744 20.3593 86.6941 20.6281 86.391 21.1656H86.3739V20.4623H85.6877ZM90.4965 18.7726V24.8965H91.2255V18.7726H90.4965ZM92.8866 22.6837C92.8866 22.4149 92.921 22.1776 92.9896 21.9718C93.0639 21.7602 93.164 21.583 93.2898 21.44C93.4155 21.2971 93.5614 21.1884 93.7272 21.1141C93.8987 21.0398 94.0788 21.0026 94.2675 21.0026C94.4562 21.0026 94.6335 21.0398 94.7993 21.1141C94.9708 21.1884 95.1195 21.2971 95.2453 21.44C95.3711 21.583 95.4683 21.7602 95.5369 21.9718C95.6112 22.1776 95.6484 22.4149 95.6484 22.6837C95.6484 22.9524 95.6112 23.1926 95.5369 23.4041C95.4683 23.61 95.3711 23.7844 95.2453 23.9273C95.1195 24.0645 94.9708 24.1703 94.7993 24.2446C94.6335 24.319 94.4562 24.3561 94.2675 24.3561C94.0788 24.3561 93.8987 24.319 93.7272 24.2446C93.5614 24.1703 93.4155 24.0645 93.2898 23.9273C93.164 23.7844 93.0639 23.61 92.9896 23.4041C92.921 23.1926 92.8866 22.9524 92.8866 22.6837ZM92.1147 22.6837C92.1147 23.0096 92.1605 23.3126 92.252 23.5928C92.3434 23.873 92.4807 24.1189 92.6636 24.3304C92.8466 24.5363 93.0725 24.6992 93.3412 24.8193C93.61 24.9337 93.9187 24.9908 94.2675 24.9908C94.622 24.9908 94.9308 24.9337 95.1938 24.8193C95.4625 24.6992 95.6884 24.5363 95.8714 24.3304C96.0543 24.1189 96.1916 23.873 96.2831 23.5928C96.3746 23.3126 96.4203 23.0096 96.4203 22.6837C96.4203 22.3577 96.3746 22.0547 96.2831 21.7745C96.1916 21.4886 96.0543 21.2428 95.8714 21.0369C95.6884 20.8254 95.4625 20.6595 95.1938 20.5395C94.9308 20.4194 94.622 20.3593 94.2675 20.3593C93.9187 20.3593 93.61 20.4194 93.3412 20.5395C93.0725 20.6595 92.8466 20.8254 92.6636 21.0369C92.4807 21.2428 92.3434 21.4886 92.252 21.7745C92.1605 22.0547 92.1147 22.3577 92.1147 22.6837ZM101.208 24.8793C101.082 24.9537 100.908 24.9908 100.685 24.9908C100.496 24.9908 100.345 24.9394 100.23 24.8364C100.122 24.7278 100.067 24.5534 100.067 24.3133C99.8672 24.5534 99.6328 24.7278 99.364 24.8364C99.101 24.9394 98.8151 24.9908 98.5063 24.9908C98.3062 24.9908 98.1147 24.968 97.9317 24.9222C97.7544 24.8765 97.6001 24.805 97.4685 24.7078C97.337 24.6106 97.2312 24.4848 97.1512 24.3304C97.0769 24.1703 97.0397 23.9788 97.0397 23.7558C97.0397 23.5042 97.0826 23.2983 97.1684 23.1382C97.2541 22.9781 97.3656 22.8495 97.5028 22.7523C97.6458 22.6494 97.8059 22.5722 97.9831 22.5207C98.1661 22.4692 98.352 22.4264 98.5406 22.3921C98.7408 22.352 98.9295 22.3234 99.1067 22.3063C99.2897 22.2834 99.4498 22.2548 99.587 22.2205C99.7242 22.1805 99.8329 22.1262 99.9129 22.0576C99.993 21.9832 100.033 21.8774 100.033 21.7402C100.033 21.5801 100.002 21.4515 99.9387 21.3543C99.8815 21.2571 99.8043 21.1827 99.7071 21.1313C99.6156 21.0798 99.5098 21.0455 99.3897 21.0283C99.2754 21.0112 99.161 21.0026 99.0467 21.0026C98.7379 21.0026 98.4806 21.0626 98.2748 21.1827C98.0689 21.2971 97.9574 21.5172 97.9403 21.8431H97.2112C97.2227 21.5687 97.2799 21.3371 97.3828 21.1484C97.4857 20.9597 97.6229 20.8082 97.7945 20.6938C97.966 20.5738 98.1604 20.488 98.3777 20.4365C98.6007 20.3851 98.838 20.3593 99.0896 20.3593C99.2897 20.3593 99.487 20.3736 99.6814 20.4022C99.8815 20.4308 100.062 20.4909 100.222 20.5823C100.382 20.6681 100.51 20.791 100.608 20.9511C100.705 21.1112 100.753 21.32 100.753 21.5773V23.8587C100.753 24.0302 100.762 24.156 100.779 24.2361C100.802 24.3161 100.871 24.3561 100.985 24.3561C101.048 24.3561 101.122 24.3419 101.208 24.3133V24.8793ZM100.024 22.6065C99.9329 22.6751 99.8129 22.7265 99.6642 22.7609C99.5155 22.7894 99.3583 22.8152 99.1925 22.838C99.0324 22.8552 98.8694 22.8781 98.7036 22.9067C98.5378 22.9295 98.3891 22.9696 98.2576 23.0267C98.1261 23.0839 98.0175 23.1668 97.9317 23.2755C97.8516 23.3784 97.8116 23.5213 97.8116 23.7043C97.8116 23.8244 97.8345 23.9273 97.8802 24.0131C97.9317 24.0931 97.9946 24.1589 98.0689 24.2103C98.149 24.2618 98.2405 24.299 98.3434 24.3218C98.4463 24.3447 98.5549 24.3561 98.6693 24.3561C98.9094 24.3561 99.1153 24.3247 99.2868 24.2618C99.4584 24.1932 99.5984 24.1103 99.7071 24.0131C99.8157 23.9102 99.8958 23.8015 99.9472 23.6872C99.9987 23.5671 100.024 23.4556 100.024 23.3527V22.6065ZM102.418 22.718C102.418 22.5007 102.441 22.2891 102.487 22.0833C102.533 21.8774 102.607 21.6945 102.71 21.5344C102.813 21.3743 102.95 21.2456 103.122 21.1484C103.293 21.0512 103.502 21.0026 103.748 21.0026C103.999 21.0026 104.214 21.0512 104.391 21.1484C104.568 21.2399 104.711 21.3628 104.82 21.5172C104.934 21.6716 105.017 21.8517 105.069 22.0576C105.12 22.2577 105.146 22.4664 105.146 22.6837C105.146 22.8895 105.12 23.0925 105.069 23.2926C105.023 23.4927 104.946 23.6729 104.837 23.833C104.728 23.9873 104.588 24.1131 104.417 24.2103C104.245 24.3075 104.036 24.3561 103.791 24.3561C103.556 24.3561 103.35 24.3104 103.173 24.2189C103.002 24.1274 102.859 24.0045 102.744 23.8501C102.636 23.6957 102.553 23.5213 102.495 23.3269C102.444 23.1268 102.418 22.9238 102.418 22.718ZM105.849 24.8965V18.7726H105.12V21.0541H105.103C105.023 20.9226 104.923 20.8139 104.803 20.7282C104.688 20.6367 104.565 20.5652 104.434 20.5137C104.302 20.4566 104.171 20.4165 104.039 20.3937C103.908 20.3708 103.785 20.3593 103.671 20.3593C103.333 20.3593 103.036 20.4222 102.779 20.548C102.527 20.6681 102.315 20.8339 102.144 21.0455C101.978 21.2513 101.852 21.4943 101.766 21.7745C101.686 22.0547 101.646 22.352 101.646 22.6665C101.646 22.981 101.689 23.2783 101.775 23.5585C101.861 23.8387 101.987 24.0845 102.152 24.2961C102.324 24.5077 102.536 24.6763 102.787 24.8021C103.044 24.9279 103.345 24.9908 103.688 24.9908C103.996 24.9908 104.279 24.9365 104.537 24.8279C104.794 24.7192 104.983 24.542 105.103 24.2961H105.12V24.8965H105.849ZM109.89 22.6837C109.89 22.4149 109.924 22.1776 109.992 21.9718C110.067 21.7602 110.167 21.583 110.293 21.44C110.418 21.2971 110.564 21.1884 110.73 21.1141C110.902 21.0398 111.082 21.0026 111.27 21.0026C111.459 21.0026 111.636 21.0398 111.802 21.1141C111.974 21.1884 112.122 21.2971 112.248 21.44C112.374 21.583 112.471 21.7602 112.54 21.9718C112.614 22.1776 112.651 22.4149 112.651 22.6837C112.651 22.9524 112.614 23.1926 112.54 23.4041C112.471 23.61 112.374 23.7844 112.248 23.9273C112.122 24.0645 111.974 24.1703 111.802 24.2446C111.636 24.319 111.459 24.3561 111.27 24.3561C111.082 24.3561 110.902 24.319 110.73 24.2446C110.564 24.1703 110.418 24.0645 110.293 23.9273C110.167 23.7844 110.067 23.61 109.992 23.4041C109.924 23.1926 109.89 22.9524 109.89 22.6837ZM109.118 22.6837C109.118 23.0096 109.163 23.3126 109.255 23.5928C109.346 23.873 109.484 24.1189 109.667 24.3304C109.849 24.5363 110.075 24.6992 110.344 24.8193C110.613 24.9337 110.922 24.9908 111.27 24.9908C111.625 24.9908 111.934 24.9337 112.197 24.8193C112.465 24.6992 112.691 24.5363 112.874 24.3304C113.057 24.1189 113.194 23.873 113.286 23.5928C113.377 23.3126 113.423 23.0096 113.423 22.6837C113.423 22.3577 113.377 22.0547 113.286 21.7745C113.194 21.4886 113.057 21.2428 112.874 21.0369C112.691 20.8254 112.465 20.6595 112.197 20.5395C111.934 20.4194 111.625 20.3593 111.27 20.3593C110.922 20.3593 110.613 20.4194 110.344 20.5395C110.075 20.6595 109.849 20.8254 109.667 21.0369C109.484 21.2428 109.346 21.4886 109.255 21.7745C109.163 22.0547 109.118 22.3577 109.118 22.6837ZM114.283 20.4623V24.8965H115.012V22.3921C115.012 22.1919 115.037 22.009 115.089 21.8431C115.146 21.6716 115.229 21.5229 115.338 21.3971C115.446 21.2713 115.581 21.1741 115.741 21.1055C115.907 21.0369 116.101 21.0026 116.324 21.0026C116.604 21.0026 116.824 21.0827 116.984 21.2428C117.145 21.4029 117.225 21.6201 117.225 21.8946V24.8965H117.954V21.9804C117.954 21.7402 117.928 21.5229 117.876 21.3285C117.831 21.1284 117.748 20.9569 117.628 20.8139C117.508 20.671 117.35 20.5595 117.156 20.4794C116.962 20.3994 116.719 20.3593 116.427 20.3593C115.769 20.3593 115.289 20.6281 114.986 21.1656H114.969V20.4623H114.283ZM122.448 20.4623V19.1329H121.719V20.4623H120.964V21.1055H121.719V23.9273C121.719 24.1331 121.739 24.299 121.779 24.4248C121.819 24.5506 121.879 24.6478 121.959 24.7164C122.045 24.785 122.153 24.8336 122.285 24.8622C122.422 24.885 122.585 24.8965 122.774 24.8965H123.331V24.2532H122.997C122.882 24.2532 122.788 24.2504 122.714 24.2446C122.645 24.2332 122.591 24.2132 122.551 24.1846C122.511 24.156 122.482 24.116 122.465 24.0645C122.453 24.0131 122.448 23.9445 122.448 23.8587V21.1055H123.331V20.4623H122.448ZM124.141 18.7726V24.8965H124.87V22.3921C124.87 22.1919 124.896 22.009 124.947 21.8431C125.004 21.6716 125.087 21.5229 125.196 21.3971C125.305 21.2713 125.439 21.1741 125.599 21.1055C125.765 21.0369 125.959 21.0026 126.182 21.0026C126.462 21.0026 126.683 21.0827 126.843 21.2428C127.003 21.4029 127.083 21.6201 127.083 21.8946V24.8965H127.812V21.9804C127.812 21.7402 127.786 21.5229 127.735 21.3285C127.689 21.1284 127.606 20.9569 127.486 20.8139C127.366 20.671 127.209 20.5595 127.014 20.4794C126.82 20.3994 126.577 20.3593 126.285 20.3593C126.154 20.3593 126.016 20.3736 125.874 20.4022C125.736 20.4308 125.602 20.4766 125.47 20.5395C125.345 20.5966 125.23 20.6738 125.127 20.771C125.024 20.8625 124.944 20.9769 124.887 21.1141H124.87V18.7726H124.141ZM131.986 22.2548H129.439C129.45 22.0833 129.487 21.9232 129.55 21.7745C129.613 21.6201 129.699 21.4858 129.807 21.3714C129.916 21.2571 130.045 21.1684 130.193 21.1055C130.348 21.0369 130.519 21.0026 130.708 21.0026C130.891 21.0026 131.057 21.0369 131.205 21.1055C131.36 21.1684 131.491 21.2571 131.6 21.3714C131.714 21.4801 131.803 21.6116 131.866 21.7659C131.934 21.9203 131.975 22.0833 131.986 22.2548ZM132.689 23.4899H131.969C131.906 23.7815 131.774 23.9988 131.574 24.1417C131.38 24.2847 131.128 24.3561 130.819 24.3561C130.579 24.3561 130.371 24.3161 130.193 24.2361C130.016 24.156 129.87 24.0502 129.756 23.9187C129.642 23.7815 129.559 23.6271 129.507 23.4556C129.456 23.2783 129.433 23.0925 129.439 22.8981H132.758C132.769 22.6293 132.744 22.3463 132.681 22.049C132.623 21.7517 132.515 21.4772 132.355 21.2256C132.2 20.974 131.992 20.7682 131.729 20.6081C131.471 20.4423 131.145 20.3593 130.751 20.3593C130.448 20.3593 130.168 20.4165 129.91 20.5309C129.659 20.6452 129.439 20.8053 129.25 21.0112C129.067 21.217 128.924 21.46 128.821 21.7402C128.718 22.0204 128.667 22.3292 128.667 22.6665C128.678 23.0039 128.727 23.3155 128.813 23.6014C128.904 23.8873 129.038 24.1331 129.216 24.339C129.393 24.5448 129.61 24.7049 129.867 24.8193C130.13 24.9337 130.439 24.9908 130.794 24.9908C131.297 24.9908 131.714 24.865 132.046 24.6134C132.378 24.3619 132.592 23.9873 132.689 23.4899Z" fill="black"/>
<path d="M72.7079 28.9139H74.9777L79.6707 41.0989H77.3839L76.2405 37.8735H71.3768L70.2334 41.0989H68.0319L72.7079 28.9139ZM71.957 36.2522H75.6774L73.8513 31.013H73.8001L71.957 36.2522ZM80.6092 32.2759H82.4523V33.4705H82.4865C82.7595 32.9585 83.1406 32.5945 83.6299 32.3783C84.1191 32.1507 84.6481 32.037 85.217 32.037C85.911 32.037 86.514 32.1621 87.0259 32.4124C87.5493 32.6513 87.9816 32.987 88.3229 33.4193C88.6643 33.8402 88.9202 34.3352 89.0909 34.904C89.2616 35.4729 89.3469 36.0816 89.3469 36.73C89.3469 37.3217 89.2672 37.8962 89.108 38.4537C88.9601 39.0112 88.7268 39.5061 88.4083 39.9384C88.1011 40.3594 87.7086 40.7007 87.2307 40.9624C86.7529 41.2126 86.1897 41.3378 85.5412 41.3378C85.2568 41.3378 84.9724 41.3094 84.6879 41.2525C84.4035 41.207 84.1305 41.1273 83.8688 41.0135C83.6071 40.8998 83.3625 40.7576 83.135 40.5869C82.9188 40.4049 82.7368 40.1944 82.5888 39.9555H82.5547V44.3584H80.6092V32.2759ZM87.4014 36.6959C87.4014 36.2977 87.3502 35.9109 87.2478 35.5354C87.1454 35.16 86.9918 34.8301 86.787 34.5456C86.5822 34.2498 86.3262 34.0166 86.0191 33.8459C85.7119 33.6639 85.3592 33.5729 84.961 33.5729C84.1418 33.5729 83.5218 33.8573 83.1008 34.4262C82.6912 34.995 82.4865 35.7516 82.4865 36.6959C82.4865 37.1396 82.5377 37.5549 82.64 37.9417C82.7538 38.3172 82.9188 38.6414 83.135 38.9145C83.3511 39.1875 83.6071 39.4037 83.9029 39.563C84.2101 39.7222 84.5628 39.8019 84.961 39.8019C85.4047 39.8019 85.7801 39.7109 86.0873 39.5288C86.3945 39.3468 86.6448 39.1136 86.8382 38.8291C87.043 38.5333 87.1852 38.2034 87.2649 37.8393C87.3559 37.4639 87.4014 37.0827 87.4014 36.6959ZM91.042 32.2759H92.8851V33.4705H92.9192C93.1923 32.9585 93.5734 32.5945 94.0626 32.3783C94.5518 32.1507 95.0809 32.037 95.6497 32.037C96.3437 32.037 96.9467 32.1621 97.4587 32.4124C97.9821 32.6513 98.4144 32.987 98.7557 33.4193C99.097 33.8402 99.353 34.3352 99.5237 34.904C99.6943 35.4729 99.7796 36.0816 99.7796 36.73C99.7796 37.3217 99.7 37.8962 99.5407 38.4537C99.3928 39.0112 99.1596 39.5061 98.841 39.9384C98.5338 40.3594 98.1413 40.7007 97.6635 40.9624C97.1857 41.2126 96.6225 41.3378 95.974 41.3378C95.6896 41.3378 95.4051 41.3094 95.1207 41.2525C94.8363 41.207 94.5632 41.1273 94.3015 41.0135C94.0399 40.8998 93.7953 40.7576 93.5677 40.5869C93.3516 40.4049 93.1695 40.1944 93.0216 39.9555H92.9875V44.3584H91.042V32.2759ZM97.8342 36.6959C97.8342 36.2977 97.783 35.9109 97.6806 35.5354C97.5782 35.16 97.4246 34.8301 97.2198 34.5456C97.015 34.2498 96.759 34.0166 96.4518 33.8459C96.1446 33.6639 95.792 33.5729 95.3938 33.5729C94.5746 33.5729 93.9545 33.8573 93.5336 34.4262C93.124 34.995 92.9192 35.7516 92.9192 36.6959C92.9192 37.1396 92.9704 37.5549 93.0728 37.9417C93.1866 38.3172 93.3516 38.6414 93.5677 38.9145C93.7839 39.1875 94.0399 39.4037 94.3357 39.563C94.6429 39.7222 94.9956 39.8019 95.3938 39.8019C95.8375 39.8019 96.2129 39.7109 96.5201 39.5288C96.8273 39.3468 97.0776 39.1136 97.271 38.8291C97.4758 38.5333 97.618 38.2034 97.6976 37.8393C97.7886 37.4639 97.8342 37.0827 97.8342 36.6959ZM103.096 37.0372C103.096 37.5037 103.176 37.9019 103.335 38.2318C103.494 38.5618 103.716 38.8348 104 39.051C104.285 39.2558 104.609 39.4094 104.973 39.5118C105.349 39.6028 105.753 39.6483 106.185 39.6483C106.651 39.6483 107.05 39.5971 107.379 39.4947C107.709 39.3809 107.977 39.2387 108.182 39.0681C108.386 38.8974 108.534 38.704 108.625 38.4878C108.716 38.2603 108.762 38.0327 108.762 37.8052C108.762 37.3387 108.654 36.9974 108.438 36.7812C108.233 36.5537 108.005 36.3944 107.755 36.3034C107.323 36.1441 106.816 35.9962 106.236 35.8597C105.667 35.7118 104.962 35.5241 104.12 35.2965C103.597 35.16 103.159 34.9837 102.806 34.7675C102.465 34.5399 102.192 34.2896 101.987 34.0166C101.782 33.7435 101.634 33.4534 101.543 33.1462C101.463 32.8391 101.424 32.5262 101.424 32.2076C101.424 31.5933 101.549 31.0642 101.799 30.6205C102.061 30.1654 102.402 29.79 102.823 29.4942C103.244 29.1984 103.722 28.9822 104.256 28.8457C104.791 28.6978 105.332 28.6238 105.878 28.6238C106.515 28.6238 107.112 28.7092 107.67 28.8798C108.238 29.0391 108.733 29.2837 109.154 29.6136C109.587 29.9436 109.928 30.3532 110.178 30.8424C110.429 31.3202 110.554 31.8777 110.554 32.5148H108.421C108.364 31.7298 108.096 31.178 107.618 30.8594C107.141 30.5295 106.532 30.3645 105.792 30.3645C105.542 30.3645 105.286 30.393 105.024 30.4499C104.763 30.4954 104.524 30.5807 104.308 30.7058C104.092 30.8196 103.909 30.9789 103.762 31.1837C103.625 31.3885 103.557 31.6445 103.557 31.9516C103.557 32.384 103.688 32.7253 103.949 32.9756C104.222 33.2145 104.575 33.3965 105.007 33.5217C105.053 33.5331 105.229 33.5843 105.536 33.6753C105.855 33.7549 106.208 33.8459 106.594 33.9483C106.981 34.0507 107.357 34.1531 107.721 34.2555C108.096 34.3465 108.364 34.4148 108.523 34.4603C108.921 34.5855 109.268 34.7561 109.564 34.9723C109.86 35.1884 110.104 35.4387 110.298 35.7232C110.503 35.9962 110.65 36.292 110.741 36.6106C110.844 36.9291 110.895 37.2477 110.895 37.5663C110.895 38.2489 110.753 38.8348 110.468 39.324C110.195 39.8019 109.831 40.1944 109.376 40.5016C108.921 40.8088 108.403 41.0306 107.823 41.1671C107.243 41.315 106.651 41.389 106.048 41.389C105.354 41.389 104.7 41.3037 104.086 41.133C103.471 40.9624 102.937 40.7007 102.482 40.348C102.027 39.9953 101.662 39.5459 101.389 38.9998C101.116 38.4423 100.974 37.7881 100.963 37.0372H103.096ZM111.602 32.2759H113.07V29.6307H115.015V32.2759H116.773V33.7265H115.015V38.4366C115.015 38.6414 115.021 38.8178 115.032 38.9657C115.055 39.1136 115.095 39.2387 115.152 39.3411C115.22 39.4435 115.317 39.5231 115.442 39.58C115.567 39.6255 115.738 39.6483 115.954 39.6483C116.09 39.6483 116.227 39.6483 116.364 39.6483C116.5 39.6369 116.637 39.6142 116.773 39.58V41.0818C116.557 41.1046 116.346 41.1273 116.142 41.1501C115.937 41.1728 115.726 41.1842 115.51 41.1842C114.998 41.1842 114.583 41.1387 114.264 41.0477C113.957 40.9453 113.713 40.8031 113.531 40.621C113.36 40.4276 113.241 40.1887 113.172 39.9043C113.115 39.6198 113.081 39.2956 113.07 38.9315V33.7265H111.602V32.2759ZM122.217 41.3378C121.512 41.3378 120.88 41.224 120.323 40.9965C119.777 40.7576 119.31 40.4333 118.924 40.0237C118.548 39.6142 118.258 39.1249 118.053 38.5561C117.86 37.9872 117.763 37.3615 117.763 36.6789C117.763 36.0076 117.86 35.3875 118.053 34.8187C118.258 34.2498 118.548 33.7606 118.924 33.351C119.31 32.9415 119.777 32.6229 120.323 32.3954C120.88 32.1564 121.512 32.037 122.217 32.037C122.923 32.037 123.548 32.1564 124.094 32.3954C124.652 32.6229 125.118 32.9415 125.494 33.351C125.881 33.7606 126.171 34.2498 126.364 34.8187C126.569 35.3875 126.671 36.0076 126.671 36.6789C126.671 37.3615 126.569 37.9872 126.364 38.5561C126.171 39.1249 125.881 39.6142 125.494 40.0237C125.118 40.4333 124.652 40.7576 124.094 40.9965C123.548 41.224 122.923 41.3378 122.217 41.3378ZM122.217 39.8019C122.65 39.8019 123.025 39.7109 123.344 39.5288C123.662 39.3468 123.924 39.1079 124.129 38.8121C124.333 38.5163 124.481 38.1863 124.572 37.8223C124.675 37.4468 124.726 37.0657 124.726 36.6789C124.726 36.3034 124.675 35.928 124.572 35.5525C124.481 35.1771 124.333 34.8471 124.129 34.5627C123.924 34.2669 123.662 34.028 123.344 33.8459C123.025 33.6639 122.65 33.5729 122.217 33.5729C121.785 33.5729 121.409 33.6639 121.091 33.8459C120.772 34.028 120.511 34.2669 120.306 34.5627C120.101 34.8471 119.947 35.1771 119.845 35.5525C119.754 35.928 119.709 36.3034 119.709 36.6789C119.709 37.0657 119.754 37.4468 119.845 37.8223C119.947 38.1863 120.101 38.5163 120.306 38.8121C120.511 39.1079 120.772 39.3468 121.091 39.5288C121.409 39.7109 121.785 39.8019 122.217 39.8019ZM128.289 32.2759H130.115V33.9825H130.149C130.206 33.7435 130.314 33.5103 130.473 33.2828C130.644 33.0552 130.843 32.8504 131.07 32.6684C131.309 32.475 131.571 32.3214 131.855 32.2076C132.14 32.0939 132.43 32.037 132.726 32.037C132.953 32.037 133.107 32.0427 133.187 32.054C133.278 32.0654 133.369 32.0768 133.46 32.0882V33.9654C133.323 33.9426 133.181 33.9256 133.033 33.9142C132.897 33.8914 132.76 33.8801 132.623 33.8801C132.294 33.8801 131.981 33.9483 131.685 34.0849C131.4 34.21 131.15 34.4034 130.934 34.6651C130.718 34.9154 130.547 35.2283 130.422 35.6037C130.297 35.9792 130.234 36.4115 130.234 36.9007V41.0989H128.289V32.2759ZM140.047 35.9109C140.024 35.6037 139.956 35.3079 139.842 35.0235C139.74 34.739 139.592 34.4944 139.398 34.2896C139.216 34.0735 138.989 33.9028 138.716 33.7777C138.454 33.6411 138.158 33.5729 137.828 33.5729C137.487 33.5729 137.174 33.6355 136.89 33.7606C136.617 33.8744 136.378 34.0394 136.173 34.2555C135.979 34.4603 135.82 34.7049 135.695 34.9893C135.581 35.2738 135.519 35.581 135.507 35.9109H140.047ZM135.507 37.1908C135.507 37.5321 135.553 37.8621 135.644 38.1806C135.746 38.4992 135.894 38.7779 136.088 39.0169C136.281 39.2558 136.526 39.4492 136.821 39.5971C137.117 39.7336 137.47 39.8019 137.879 39.8019C138.448 39.8019 138.903 39.6824 139.245 39.4435C139.597 39.1932 139.859 38.8234 140.03 38.3342H141.873C141.77 38.8121 141.594 39.2387 141.344 39.6142C141.093 39.9896 140.792 40.3082 140.439 40.5698C140.087 40.8201 139.688 41.0079 139.245 41.133C138.812 41.2695 138.357 41.3378 137.879 41.3378C137.185 41.3378 136.571 41.224 136.036 40.9965C135.502 40.7689 135.047 40.4504 134.671 40.0408C134.307 39.6312 134.028 39.142 133.835 38.5731C133.653 38.0043 133.562 37.3785 133.562 36.6959C133.562 36.0702 133.659 35.4786 133.852 34.9211C134.057 34.3522 134.341 33.8573 134.705 33.4364C135.081 33.004 135.53 32.6627 136.053 32.4124C136.577 32.1621 137.168 32.037 137.828 32.037C138.522 32.037 139.142 32.1849 139.688 32.4807C140.246 32.7651 140.707 33.1462 141.071 33.6241C141.435 34.1019 141.696 34.6537 141.856 35.2795C142.026 35.8938 142.072 36.5309 141.992 37.1908H135.507Z" fill="black"/>
</svg>
