<svg width="202" height="65" viewBox="0 0 202 65" fill="none" xmlns="http://www.w3.org/2000/svg">
<path d="M169.526 64.1859H32.0929C14.3701 64.1859 0 49.8158 0 32.0929C0 14.3701 14.3701 0 32.0929 0H169.526C187.249 0 201.619 14.3701 201.619 32.0929C201.619 49.8158 187.249 64.1859 169.526 64.1859Z" fill="white"/>
<path d="M92.3224 33.3767C90.0041 33.3767 88.2371 35.1437 88.2371 37.4619C88.2371 39.7802 90.1174 41.5472 92.3224 41.5472C94.6406 41.5472 96.4076 39.7802 96.4076 37.4619C96.4151 35.0304 94.6481 33.3767 92.3224 33.3767ZM92.3224 39.8935C91.1066 39.8935 90.0041 38.8967 90.0041 37.4619C90.0041 36.0272 91.1066 35.0304 92.3224 35.0304C93.5381 35.0304 94.6406 36.0272 94.6406 37.4619C94.6482 38.8967 93.5381 39.8935 92.3224 39.8935ZM83.3741 33.3767C81.0559 33.3767 79.2889 35.1437 79.2889 37.4619C79.2889 39.7802 81.1691 41.5472 83.3741 41.5472C85.6923 41.5472 87.4593 39.7802 87.4593 37.4619C87.4593 35.0304 85.5866 33.3767 83.3741 33.3767ZM83.3741 39.8935C82.1583 39.8935 81.0558 38.8967 81.0558 37.4619C81.0558 36.0272 82.1583 35.0304 83.3741 35.0304C84.5899 35.0304 85.6923 36.0272 85.6923 37.4619C85.5866 38.8967 84.5899 39.8935 83.3741 39.8935ZM72.6513 34.5849V36.3519H76.8498C76.7365 37.3487 76.4043 38.0132 75.853 38.5644C75.3018 39.1157 74.305 39.7802 72.6513 39.7802C70.1065 39.7802 68.1205 37.681 68.1205 35.1362C68.1205 32.5914 70.1065 30.4921 72.6513 30.4921C73.9803 30.4921 75.0828 31.0433 75.7473 31.7079L76.9631 30.4921C75.9663 29.4953 74.5316 28.7251 72.5456 28.7251C69.0116 28.7251 66.0288 31.5946 66.0288 35.1362C66.0288 38.6777 69.0116 41.5472 72.5456 41.5472C74.4258 41.5472 75.8606 40.8827 76.9631 39.7802C78.0655 38.6777 78.5111 37.0164 78.5111 35.695C78.5111 35.2494 78.5111 34.9247 78.3978 34.5925H72.6513V34.5849ZM116.418 35.9139C116.086 35.0304 115.089 33.2634 112.884 33.2634C110.785 33.2634 109.018 34.9247 109.018 37.3487C109.018 39.6669 110.785 41.4339 113.103 41.4339C114.984 41.4339 116.086 40.3315 116.532 39.6669L115.097 38.7834C114.651 39.4479 113.995 39.8859 113.111 39.8859C112.228 39.8859 111.563 39.4404 111.125 38.6702L116.653 36.3519L116.418 35.9139ZM110.778 37.3487C110.778 35.8007 111.993 34.9172 112.877 34.9172C113.647 34.9172 114.206 35.2494 114.425 35.8006L110.778 37.3487ZM106.36 41.3282H108.127V29.1706H106.36V41.3282ZM103.377 34.2602C102.932 33.8147 102.162 33.3767 101.165 33.3767C99.0656 33.3767 97.1854 35.1437 97.1854 37.4619C97.1854 39.7802 99.0656 41.5472 101.165 41.5472C102.162 41.5472 102.932 41.1016 103.377 40.6637H103.491V41.2149C103.491 42.763 102.607 43.6464 101.278 43.6464C100.176 43.6464 99.5112 42.8762 99.1789 42.2117L97.6309 42.8762C98.0764 43.9787 99.2922 45.3077 101.278 45.3077C103.377 45.3077 105.144 44.0919 105.144 40.9959V33.5957H103.483L103.377 34.2602ZM101.278 39.8935C100.062 39.8935 98.9599 38.8967 98.9599 37.4619C98.9599 36.0272 99.9567 34.9172 101.278 34.9172C102.494 34.9172 103.491 36.0196 103.491 37.4619C103.483 38.8967 102.494 39.8935 101.278 39.8935ZM124.816 29.1706H120.504V41.3282H122.271V36.7974H124.816C126.801 36.7974 128.795 35.3627 128.795 33.0369C128.795 30.7111 126.801 29.1706 124.816 29.1706ZM124.921 35.0304H122.271V30.9452H124.816C126.145 30.9452 126.915 32.0477 126.915 33.0445C127.02 33.928 126.25 35.0304 124.921 35.0304ZM135.976 33.2634C134.647 33.2634 133.326 33.8147 132.775 35.1437L134.436 35.8082C134.768 35.1437 135.433 34.9247 136.097 34.9247C136.981 34.9247 137.977 35.4759 137.977 36.4727V36.586C137.645 36.367 136.981 36.1405 136.097 36.1405C134.33 36.1405 132.563 37.1373 132.563 38.9043C132.563 40.5655 133.998 41.5548 135.546 41.5548C136.762 41.5548 137.426 41.0035 137.864 40.339H137.977V41.2225H139.744V36.5784C139.624 34.4792 138.076 33.2634 135.976 33.2634ZM135.757 39.8935C135.206 39.8935 134.323 39.5612 134.323 38.8967C134.323 38.0132 135.319 37.5677 136.203 37.5677C136.973 37.5677 137.419 37.681 137.864 38.0132C137.857 39.1157 136.86 39.8935 135.757 39.8935ZM146.035 33.5957L143.935 38.791H143.822L141.723 33.5957H139.737L142.939 40.8902L141.058 44.9755H142.939L148.021 33.5957H146.035ZM129.784 41.3282H131.551V29.1706H129.784V41.3282Z" fill="black"/>
<path d="M44.364 21.4387C44.145 21.771 44.0317 22.1032 44.0317 22.5412V39.894C44.0317 40.3396 44.145 40.7775 44.364 40.9965H44.4773L54.2033 31.2705V31.1572V31.0439L44.364 21.4387Z" fill="black"/>
<path opacity="0.4" d="M57.4044 34.5856L54.2026 31.3838V31.2705V31.1573L57.4044 27.9556H57.5176L61.3839 30.1681C62.4864 30.8326 62.4864 31.8294 61.3839 32.4863L57.4044 34.5856Z" fill="black"/>
<path opacity="0.6" d="M57.5186 34.5846L54.2036 31.2695L44.4775 40.9956C44.8098 41.4411 45.4743 41.4411 46.1388 40.9956L57.5186 34.5846Z" fill="black"/>
<path opacity="0.6" d="M57.5191 27.955L46.026 21.4382C45.3615 20.9927 44.8103 21.106 44.3647 21.4382L54.0908 31.1643L57.5191 27.955Z" fill="black"/>
<path d="M69.2349 25.0595V20.4044H70.5793C70.9491 20.4044 71.26 20.4576 71.512 20.564C71.7641 20.6649 71.9686 20.8161 72.1254 21.0178C72.2879 21.2138 72.4027 21.4547 72.4699 21.7404C72.5428 22.0205 72.5792 22.3398 72.5792 22.6983C72.5792 23.068 72.54 23.3845 72.4615 23.6478C72.3887 23.9055 72.2935 24.1212 72.1759 24.2948C72.0582 24.4685 71.9238 24.6057 71.7725 24.7066C71.6269 24.8074 71.4784 24.8858 71.3272 24.9418C71.1759 24.9923 71.0331 25.0259 70.8986 25.0427C70.7642 25.0539 70.6522 25.0595 70.5625 25.0595H69.2349ZM68.4367 19.7322V25.7317H70.4953C70.9939 25.7317 71.4252 25.6617 71.7893 25.5216C72.1534 25.3816 72.4531 25.1799 72.6884 24.9166C72.9237 24.6477 73.0973 24.32 73.2094 23.9335C73.3214 23.5414 73.3774 23.0932 73.3774 22.5891C73.3774 21.6256 73.1282 20.9085 72.6296 20.438C72.131 19.9674 71.4196 19.7322 70.4953 19.7322H68.4367ZM74.7563 23.5638C74.7563 23.3005 74.7899 23.068 74.8572 22.8664C74.93 22.6591 75.028 22.4855 75.1513 22.3454C75.2745 22.2054 75.4173 22.0989 75.5798 22.0261C75.7478 21.9533 75.9243 21.9169 76.1092 21.9169C76.294 21.9169 76.4677 21.9533 76.6301 22.0261C76.7982 22.0989 76.9438 22.2054 77.0671 22.3454C77.1903 22.4855 77.2855 22.6591 77.3528 22.8664C77.4256 23.068 77.462 23.3005 77.462 23.5638C77.462 23.8271 77.4256 24.0624 77.3528 24.2696C77.2855 24.4713 77.1903 24.6421 77.0671 24.7822C76.9438 24.9166 76.7982 25.0203 76.6301 25.0931C76.4677 25.1659 76.294 25.2023 76.1092 25.2023C75.9243 25.2023 75.7478 25.1659 75.5798 25.0931C75.4173 25.0203 75.2745 24.9166 75.1513 24.7822C75.028 24.6421 74.93 24.4713 74.8572 24.2696C74.7899 24.0624 74.7563 23.8271 74.7563 23.5638ZM74.0001 23.5638C74.0001 23.8831 74.0449 24.18 74.1345 24.4545C74.2242 24.729 74.3586 24.9698 74.5379 25.1771C74.7171 25.3788 74.9384 25.5384 75.2017 25.6561C75.465 25.7681 75.7675 25.8241 76.1092 25.8241C76.4565 25.8241 76.759 25.7681 77.0167 25.6561C77.2799 25.5384 77.5012 25.3788 77.6805 25.1771C77.8597 24.9698 77.9942 24.729 78.0838 24.4545C78.1734 24.18 78.2182 23.8831 78.2182 23.5638C78.2182 23.2445 78.1734 22.9476 78.0838 22.6731C77.9942 22.393 77.8597 22.1521 77.6805 21.9505C77.5012 21.7432 77.2799 21.5808 77.0167 21.4631C76.759 21.3455 76.4565 21.2867 76.1092 21.2867C75.7675 21.2867 75.465 21.3455 75.2017 21.4631C74.9384 21.5808 74.7171 21.7432 74.5379 21.9505C74.3586 22.1521 74.2242 22.393 74.1345 22.6731C74.0449 22.9476 74.0001 23.2445 74.0001 23.5638ZM83.3625 25.7317L84.749 21.3875H84.0095L83.0348 24.9418H83.018L82.1105 21.3875H81.3291L80.4552 24.9418H80.4384L79.4553 21.3875H78.6654L80.0603 25.7317H80.8333L81.7072 22.2782H81.724L82.6063 25.7317H83.3625ZM85.428 21.3875V25.7317H86.1422V23.2781C86.1422 23.082 86.1674 22.9028 86.2179 22.7403C86.2739 22.5723 86.3551 22.4266 86.4615 22.3034C86.568 22.1802 86.6996 22.0849 86.8565 22.0177C87.0189 21.9505 87.2094 21.9169 87.4278 21.9169C87.7023 21.9169 87.918 21.9953 88.0748 22.1521C88.2317 22.309 88.3101 22.5219 88.3101 22.7907V25.7317H89.0244V22.8748C89.0244 22.6395 88.9991 22.4266 88.9487 22.2362C88.9039 22.0401 88.8227 21.8721 88.7051 21.732C88.5874 21.592 88.4334 21.4827 88.2429 21.4043C88.0524 21.3259 87.8144 21.2867 87.5287 21.2867C86.8845 21.2867 86.4139 21.55 86.117 22.0765H86.1002V21.3875H85.428ZM90.1391 19.7322V25.7317H90.8533V19.7322H90.1391ZM92.4807 23.5638C92.4807 23.3005 92.5144 23.068 92.5816 22.8664C92.6544 22.6591 92.7524 22.4855 92.8757 22.3454C92.9989 22.2054 93.1418 22.0989 93.3042 22.0261C93.4723 21.9533 93.6487 21.9169 93.8336 21.9169C94.0184 21.9169 94.1921 21.9533 94.3545 22.0261C94.5226 22.0989 94.6682 22.2054 94.7915 22.3454C94.9147 22.4855 95.01 22.6591 95.0772 22.8664C95.15 23.068 95.1864 23.3005 95.1864 23.5638C95.1864 23.8271 95.15 24.0624 95.0772 24.2696C95.01 24.4713 94.9147 24.6421 94.7915 24.7822C94.6682 24.9166 94.5226 25.0203 94.3545 25.0931C94.1921 25.1659 94.0184 25.2023 93.8336 25.2023C93.6487 25.2023 93.4723 25.1659 93.3042 25.0931C93.1418 25.0203 92.9989 24.9166 92.8757 24.7822C92.7524 24.6421 92.6544 24.4713 92.5816 24.2696C92.5144 24.0624 92.4807 23.8271 92.4807 23.5638ZM91.7245 23.5638C91.7245 23.8831 91.7693 24.18 91.8589 24.4545C91.9486 24.729 92.083 24.9698 92.2623 25.1771C92.4415 25.3788 92.6628 25.5384 92.9261 25.6561C93.1894 25.7681 93.4919 25.8241 93.8336 25.8241C94.1809 25.8241 94.4834 25.7681 94.7411 25.6561C95.0043 25.5384 95.2256 25.3788 95.4049 25.1771C95.5841 24.9698 95.7186 24.729 95.8082 24.4545C95.8978 24.18 95.9426 23.8831 95.9426 23.5638C95.9426 23.2445 95.8978 22.9476 95.8082 22.6731C95.7186 22.393 95.5841 22.1521 95.4049 21.9505C95.2256 21.7432 95.0043 21.5808 94.7411 21.4631C94.4834 21.3455 94.1809 21.2867 93.8336 21.2867C93.4919 21.2867 93.1894 21.3455 92.9261 21.4631C92.6628 21.5808 92.4415 21.7432 92.2623 21.9505C92.083 22.1521 91.9486 22.393 91.8589 22.6731C91.7693 22.9476 91.7245 23.2445 91.7245 23.5638ZM100.633 25.7149C100.51 25.7877 100.339 25.8241 100.121 25.8241C99.9358 25.8241 99.7873 25.7737 99.6753 25.6729C99.5688 25.5664 99.5156 25.3956 99.5156 25.1603C99.3196 25.3956 99.0899 25.5664 98.8266 25.6729C98.5689 25.7737 98.2888 25.8241 97.9863 25.8241C97.7903 25.8241 97.6026 25.8017 97.4234 25.7569C97.2497 25.7121 97.0985 25.6421 96.9696 25.5468C96.8408 25.4516 96.7371 25.3284 96.6587 25.1771C96.5859 25.0203 96.5495 24.8326 96.5495 24.6141C96.5495 24.3677 96.5915 24.166 96.6755 24.0091C96.7595 23.8523 96.8688 23.7262 97.0032 23.631C97.1433 23.5302 97.3001 23.4546 97.4738 23.4041C97.653 23.3537 97.8351 23.3117 98.02 23.2781C98.216 23.2389 98.4009 23.2109 98.5745 23.1941C98.7538 23.1717 98.9106 23.1437 99.0451 23.1101C99.1795 23.0708 99.286 23.0176 99.3644 22.9504C99.4428 22.8776 99.482 22.7739 99.482 22.6395C99.482 22.4827 99.4512 22.3566 99.3896 22.2614C99.3336 22.1662 99.2579 22.0933 99.1627 22.0429C99.0731 21.9925 98.9695 21.9589 98.8518 21.9421C98.7398 21.9253 98.6277 21.9169 98.5157 21.9169C98.2132 21.9169 97.9611 21.9757 97.7595 22.0933C97.5578 22.2054 97.4486 22.421 97.4318 22.7403H96.7175C96.7287 22.4714 96.7848 22.2446 96.8856 22.0597C96.9864 21.8749 97.1209 21.7264 97.2889 21.6144C97.457 21.4967 97.6474 21.4127 97.8603 21.3623C98.0788 21.3119 98.3112 21.2867 98.5577 21.2867C98.7538 21.2867 98.947 21.3007 99.1375 21.3287C99.3336 21.3567 99.51 21.4155 99.6669 21.5051C99.8237 21.5892 99.9498 21.7096 100.045 21.8665C100.14 22.0233 100.188 22.2278 100.188 22.4799V24.715C100.188 24.883 100.196 25.0063 100.213 25.0847C100.235 25.1631 100.303 25.2023 100.415 25.2023C100.476 25.2023 100.549 25.1883 100.633 25.1603V25.7149ZM99.4736 23.4882C99.384 23.5554 99.2663 23.6058 99.1207 23.6394C98.9751 23.6674 98.821 23.6926 98.6586 23.715C98.5017 23.7319 98.3421 23.7543 98.1796 23.7823C98.0171 23.8047 97.8715 23.8439 97.7427 23.8999C97.6138 23.9559 97.5074 24.0371 97.4234 24.1436C97.3449 24.2444 97.3057 24.3845 97.3057 24.5637C97.3057 24.6814 97.3281 24.7822 97.3729 24.8662C97.4234 24.9446 97.485 25.0091 97.5578 25.0595C97.6362 25.1099 97.7259 25.1463 97.8267 25.1687C97.9275 25.1911 98.034 25.2023 98.146 25.2023C98.3813 25.2023 98.5829 25.1715 98.751 25.1099C98.919 25.0427 99.0563 24.9614 99.1627 24.8662C99.2692 24.7654 99.3476 24.6589 99.398 24.5469C99.4484 24.4293 99.4736 24.32 99.4736 24.2192V23.4882ZM101.819 23.5974C101.819 23.3845 101.841 23.1773 101.886 22.9756C101.931 22.7739 102.004 22.5947 102.105 22.4378C102.205 22.281 102.34 22.1549 102.508 22.0597C102.676 21.9645 102.88 21.9169 103.121 21.9169C103.368 21.9169 103.578 21.9645 103.751 22.0597C103.925 22.1493 104.065 22.2698 104.172 22.421C104.284 22.5723 104.365 22.7487 104.415 22.9504C104.466 23.1465 104.491 23.3509 104.491 23.5638C104.491 23.7655 104.466 23.9643 104.415 24.1604C104.37 24.3565 104.295 24.5329 104.188 24.6898C104.082 24.841 103.945 24.9642 103.777 25.0595C103.609 25.1547 103.404 25.2023 103.163 25.2023C102.934 25.2023 102.732 25.1575 102.558 25.0679C102.39 24.9782 102.25 24.8578 102.138 24.7066C102.032 24.5553 101.951 24.3845 101.895 24.194C101.844 23.9979 101.819 23.7991 101.819 23.5974ZM105.18 25.7317V19.7322H104.466V21.9673H104.449C104.37 21.8384 104.272 21.732 104.155 21.648C104.043 21.5584 103.922 21.4883 103.794 21.4379C103.665 21.3819 103.536 21.3427 103.407 21.3203C103.278 21.2979 103.158 21.2867 103.046 21.2867C102.715 21.2867 102.424 21.3483 102.172 21.4715C101.925 21.5892 101.718 21.7516 101.55 21.9589C101.388 22.1605 101.264 22.3986 101.18 22.6731C101.102 22.9476 101.063 23.2389 101.063 23.547C101.063 23.8551 101.105 24.1464 101.189 24.4209C101.273 24.6954 101.396 24.9362 101.558 25.1435C101.726 25.3508 101.934 25.516 102.18 25.6393C102.432 25.7625 102.726 25.8241 103.062 25.8241C103.365 25.8241 103.642 25.7709 103.894 25.6645C104.146 25.558 104.331 25.3844 104.449 25.1435H104.466V25.7317H105.18ZM109.138 23.5638C109.138 23.3005 109.172 23.068 109.239 22.8664C109.312 22.6591 109.41 22.4855 109.533 22.3454C109.657 22.2054 109.799 22.0989 109.962 22.0261C110.13 21.9533 110.306 21.9169 110.491 21.9169C110.676 21.9169 110.85 21.9533 111.012 22.0261C111.18 22.0989 111.326 22.2054 111.449 22.3454C111.572 22.4855 111.668 22.6591 111.735 22.8664C111.808 23.068 111.844 23.3005 111.844 23.5638C111.844 23.8271 111.808 24.0624 111.735 24.2696C111.668 24.4713 111.572 24.6421 111.449 24.7822C111.326 24.9166 111.18 25.0203 111.012 25.0931C110.85 25.1659 110.676 25.2023 110.491 25.2023C110.306 25.2023 110.13 25.1659 109.962 25.0931C109.799 25.0203 109.657 24.9166 109.533 24.7822C109.41 24.6421 109.312 24.4713 109.239 24.2696C109.172 24.0624 109.138 23.8271 109.138 23.5638ZM108.382 23.5638C108.382 23.8831 108.427 24.18 108.517 24.4545C108.606 24.729 108.741 24.9698 108.92 25.1771C109.099 25.3788 109.32 25.5384 109.584 25.6561C109.847 25.7681 110.15 25.8241 110.491 25.8241C110.839 25.8241 111.141 25.7681 111.399 25.6561C111.662 25.5384 111.883 25.3788 112.063 25.1771C112.242 24.9698 112.376 24.729 112.466 24.4545C112.556 24.18 112.6 23.8831 112.6 23.5638C112.6 23.2445 112.556 22.9476 112.466 22.6731C112.376 22.393 112.242 22.1521 112.063 21.9505C111.883 21.7432 111.662 21.5808 111.399 21.4631C111.141 21.3455 110.839 21.2867 110.491 21.2867C110.15 21.2867 109.847 21.3455 109.584 21.4631C109.32 21.5808 109.099 21.7432 108.92 21.9505C108.741 22.1521 108.606 22.393 108.517 22.6731C108.427 22.9476 108.382 23.2445 108.382 23.5638ZM113.442 21.3875V25.7317H114.157V23.2781C114.157 23.082 114.182 22.9028 114.232 22.7403C114.288 22.5723 114.37 22.4266 114.476 22.3034C114.582 22.1802 114.714 22.0849 114.871 22.0177C115.033 21.9505 115.224 21.9169 115.442 21.9169C115.717 21.9169 115.932 21.9953 116.089 22.1521C116.246 22.309 116.325 22.5219 116.325 22.7907V25.7317H117.039V22.8748C117.039 22.6395 117.014 22.4266 116.963 22.2362C116.918 22.0401 116.837 21.8721 116.719 21.732C116.602 21.592 116.448 21.4827 116.257 21.4043C116.067 21.3259 115.829 21.2867 115.543 21.2867C114.899 21.2867 114.428 21.55 114.131 22.0765H114.115V21.3875H113.442Z" fill="black"/>
</svg>
