<?xml version="1.0" encoding="UTF-8"?>
<svg xmlns="http://www.w3.org/2000/svg" width="49" height="49" viewBox="0 0 49 49" fill="none">
  <path fill-rule="evenodd" clip-rule="evenodd" d="M21.4375 49H7.14583C4.2875 49 2.04167 46.6725 2.04167 43.8958V20.1308C0.690083 19.1651 0 17.6788 0 16.168C0 15.4003 0.181708 14.6367 0.590042 13.8629C2.76442 9.98783 4.98575 6.13929 7.25608 2.31933C8.19933 0.814625 9.72854 0 11.4313 0C12.7278 0 13.4158 0.4165 14.3815 0.977958C15.7331 1.76604 32.7565 11.905 39.9268 16.17C40.1045 16.2762 46.7991 20.2288 46.9685 20.3452C48.3222 21.3456 49 22.7891 49 24.2938C49 25.0594 48.8122 25.8148 48.3977 26.6009C46.2254 30.478 44.002 34.3265 41.7317 38.1465C40.5536 40.0248 38.4344 40.7803 36.6357 40.3678C35.8353 40.8456 24.7409 48.0241 23.8712 48.4692C23.028 48.902 22.3154 49 21.4375 49V49ZM6.125 27.0255V43.8958C6.125 44.4553 6.57621 44.9167 7.14583 44.9167H16.513C13.0013 38.9836 9.53663 33.0199 6.125 27.0255V27.0255ZM9.40392 24.498C9.51213 24.6858 21.0026 44.5002 21.0945 44.6268C21.315 44.9105 21.705 44.9963 22.0235 44.8268C22.3583 44.639 32.3972 38.1894 32.3972 38.1894C31.0925 37.4197 15.7698 28.2853 9.40392 24.498V24.498ZM10.7494 4.43042C8.88533 7.40308 4.21808 15.7106 4.14458 15.8842C4.00167 16.2333 4.12825 16.6314 4.44879 16.8315C4.85917 17.0765 37.1624 36.3233 37.4768 36.3723C37.7851 36.4172 38.0832 36.2804 38.2465 36.017C40.1698 32.783 44.7921 24.6858 44.8452 24.5817C44.9861 24.2305 44.8595 23.8324 44.539 23.6323C44.1286 23.3873 11.907 4.2385 11.6885 4.14254C11.321 3.99146 10.9433 4.13846 10.7494 4.43042V4.43042ZM13.9283 9.93271C16.1823 9.93271 18.0116 11.7641 18.0116 14.016C18.0116 16.27 16.1823 18.0994 13.9283 18.0994C11.6743 18.0994 9.84492 16.27 9.84492 14.016C9.84492 11.7641 11.6743 9.93271 13.9283 9.93271Z" fill="black"></path>
</svg>
