<svg width="29" height="43" viewBox="0 0 29 43" fill="none" xmlns="http://www.w3.org/2000/svg">
<path d="M25.832 12.715C27.5113 10.7115 28.4386 8.19788 28.4386 5.64044V0.236328H0.392578V5.64044C0.392578 8.19788 1.3181 10.7097 2.9991 12.7133L8.40847 19.1639C9.40235 20.3506 9.40936 22.0123 8.42424 23.206L2.93775 29.8564C1.29706 31.8477 0.392578 34.335 0.392578 36.8591V42.3053H28.4386V36.8591C28.4386 34.335 27.5323 31.8494 25.8916 29.8581L20.4051 23.2077C19.42 22.014 19.427 20.3523 20.4209 19.1656L25.832 12.715ZM17.7004 25.4356L23.1869 32.086C24.3298 33.4743 24.9328 35.1115 24.9328 37.0467H23.073C21.683 33.5111 14.4156 28.2823 14.4156 28.2823C14.4156 28.2823 7.1464 33.5111 5.75637 37.0467H3.89832C3.89832 35.1115 4.49956 33.4726 5.64419 32.0878L11.1289 25.4391C13.1745 22.9606 13.1605 19.376 11.0956 16.9132L5.68626 10.4608C4.52936 9.08483 3.89832 7.41785 3.89832 5.4932H24.9328C24.9328 7.42311 24.2965 9.08659 23.1449 10.4608L17.7338 16.9114C15.6706 19.3742 15.6566 22.9606 17.7004 25.4356Z" fill="black"/>
</svg>
