<svg width="49" height="34" viewBox="0 0 49 34" fill="none" xmlns="http://www.w3.org/2000/svg">
<path d="M22.4443 12.8433H0.196289V8.79819H22.4443C23.5607 8.79819 24.4668 7.89209 24.4668 6.77565C24.4668 5.6592 23.5607 4.7531 22.4443 4.7531C21.6292 4.7531 20.9335 5.24256 20.6139 5.94033L17.0765 4.00678C18.0857 2.05502 20.0981 0.708008 22.4443 0.708008C30.4758 0.708008 30.4718 12.8433 22.4443 12.8433ZM36.6021 27.0011C36.6021 23.6518 33.8838 20.9335 30.5345 20.9335H0.196289V24.9786H30.5345C31.6509 24.9786 32.557 25.8847 32.557 27.0011C32.557 28.1176 31.6509 29.0237 30.5345 29.0237C29.7194 29.0237 29.0236 28.5342 28.7041 27.8364L25.1666 29.77C26.1759 31.7217 28.1883 33.0687 30.5345 33.0687C33.8838 33.0687 36.6021 30.3504 36.6021 27.0011ZM38.653 11.5185C38.8188 9.99554 40.093 8.79819 41.6585 8.79819C43.3311 8.79819 44.6923 10.1594 44.6923 11.832C44.6923 13.5047 43.3311 14.8658 41.6585 14.8658H0.196289V18.9109H41.6585C45.5661 18.9109 48.7374 15.7396 48.7374 11.832C48.7374 7.92445 45.5661 4.7531 41.6585 4.7531C38.3739 4.7531 35.6374 7.01026 34.8385 10.0461L38.653 11.5185Z" fill="black"/>
</svg>
