<svg width="78" height="78" viewBox="0 0 78 78" fill="none" xmlns="http://www.w3.org/2000/svg">
<path d="M62.8728 9.98208C63.3725 9.37471 63.2867 8.47501 62.6615 7.99783C57.1673 3.8045 50.6496 1.14115 43.7731 0.29318C36.4248 -0.612959 28.9704 0.59134 22.2813 3.7653C15.5922 6.93925 9.94473 11.9517 5.99914 18.2168C2.05356 24.4818 -0.0271443 31.7405 0.000267289 39.1444C0.0276789 46.5483 2.16207 53.7914 6.15394 60.027C10.1458 66.2627 15.8302 71.2332 22.5426 74.3575C29.2551 77.4819 36.7182 78.6309 44.0595 77.6704C50.9296 76.7716 57.4274 74.06 62.8904 69.8261C63.5121 69.3443 63.5912 68.444 63.087 67.8404L57.1226 60.6989C56.6184 60.0953 55.7225 60.0179 55.093 60.4894C51.4068 63.25 47.0652 65.0209 42.4829 65.6204C37.4292 66.2816 32.2917 65.4906 27.6709 63.3399C23.0501 61.1891 19.137 57.7674 16.389 53.4748C13.641 49.1823 12.1717 44.1962 12.1529 39.0994C12.134 34.0026 13.5663 29.0058 16.2825 24.693C18.9986 20.3802 22.8862 16.9296 27.491 14.7447C32.0957 12.5598 37.2272 11.7307 42.2857 12.3545C46.8723 12.9201 51.2269 14.6588 54.9334 17.392C55.5664 17.8588 56.4617 17.7749 56.9614 17.1675L62.8728 9.98208Z" fill="black"/>
<ellipse cx="68.8116" cy="23.8902" rx="7.1466" ry="7.1466" fill="black"/>
</svg>
