<svg width="421" height="605" viewBox="0 0 421 605" fill="none" xmlns="http://www.w3.org/2000/svg">
<path d="M43.6144 604.919C34.9482 604.919 26.4783 602.337 19.2855 597.502C12.0926 592.667 6.50305 585.798 3.23 577.771C-0.0430579 569.744 -0.85116 560.924 0.908807 552.435C2.66877 543.947 6.917 536.176 13.1114 530.113L206.639 340.703L2.76605 340.606L330.149 12.7918C338.323 4.6068 349.414 0.00545882 360.98 4.85393e-06C372.546 -0.00544911 383.641 4.58543 391.823 12.7627C400.006 20.94 404.605 32.0338 404.611 43.6036C404.616 55.1735 400.027 66.2716 391.852 74.4566L213.084 253.455L420.388 253.552L74.1125 592.476C65.9716 600.465 55.0184 604.934 43.6144 604.919Z" fill="#6692FC"/>
<path d="M43.3342 584.144C38.8514 584.144 34.4702 582.808 30.7497 580.308C27.0291 577.807 24.138 574.254 22.4452 570.103C20.7523 565.951 20.3346 561.39 21.2453 557C22.156 552.61 24.3538 548.591 27.5583 545.456L258.24 319.701L53.3033 319.604L345.124 27.477C347.213 25.3626 349.7 23.6821 352.441 22.5319C355.181 21.3818 358.123 20.7847 361.095 20.775C364.067 20.7654 367.012 21.3433 369.761 22.4756C372.509 23.6079 375.006 25.2723 377.109 27.373C379.212 29.4738 380.88 31.9695 382.015 34.7167C383.151 37.464 383.732 40.4086 383.726 43.3813C383.72 46.354 383.127 49.2962 381.98 52.0388C380.833 54.7814 379.156 57.2703 377.044 59.3625L162.139 274.531L368.851 274.628L59.1101 577.71C54.8983 581.84 49.2328 584.151 43.3342 584.144Z" fill="#156FFB"/>
<path d="M44.1807 567.035C42.9294 567.034 41.7065 566.662 40.668 565.965C39.6296 565.268 38.8227 564.278 38.3501 563.121C37.8776 561.965 37.7609 560.694 38.0149 559.471C38.269 558.247 38.8822 557.127 39.7764 556.254L298.62 303.43L93.2961 303.333L357.081 39.7284C358.262 38.5482 359.865 37.8847 361.535 37.8838C363.206 37.8829 364.809 38.5447 365.992 39.7236C367.174 40.9024 367.839 42.5019 367.839 44.17C367.84 45.8381 367.177 47.4382 365.996 48.6184L123.675 290.767L329.493 290.864L48.585 565.24C47.41 566.393 45.8279 567.037 44.1807 567.035Z" fill="#ECF2FF"/>
<path d="M251.385 158.868C250.248 158.872 249.135 158.538 248.188 157.908C247.241 157.277 246.503 156.379 246.068 155.328C245.634 154.277 245.522 153.12 245.747 152.005C245.972 150.89 246.525 149.867 247.333 149.067L279.731 116.666C280.258 116.11 280.89 115.664 281.592 115.356C282.294 115.049 283.05 114.885 283.816 114.874C284.582 114.864 285.342 115.007 286.052 115.295C286.762 115.583 287.407 116.011 287.949 116.553C288.491 117.095 288.918 117.74 289.207 118.449C289.495 119.159 289.638 119.92 289.627 120.686C289.617 121.452 289.453 122.208 289.145 122.91C288.837 123.612 288.392 124.245 287.835 124.771L255.438 157.172C254.907 157.708 254.276 158.133 253.581 158.424C252.885 158.715 252.139 158.866 251.385 158.868Z" fill="black"/>
<path d="M358.939 51.3265C357.799 51.3313 356.684 50.9962 355.735 50.3641C354.786 49.7321 354.046 48.8316 353.61 47.7774C353.175 46.7233 353.063 45.5633 353.288 44.4451C353.514 43.327 354.068 42.3015 354.878 41.4992L387.35 9.00998C388.432 7.93225 389.898 7.32885 391.425 7.33254C392.952 7.33622 394.415 7.94669 395.492 9.02964C396.569 10.1126 397.173 11.5793 397.169 13.1071C397.165 14.635 396.555 16.0988 395.473 17.1765L363.001 49.6657C361.921 50.736 360.46 51.3333 358.939 51.3265Z" fill="black"/>
<path d="M345.092 27.5412L285.589 87.0445C276.737 95.8961 276.736 110.247 285.587 119.097C294.438 127.948 308.788 127.947 317.64 119.096L377.143 59.5923C385.995 50.7407 385.995 36.3902 377.145 27.5395C368.294 18.6889 353.944 18.6896 345.092 27.5412Z" fill="black"/>
<path d="M321.99 50.6416L345.093 27.538C349.344 23.2873 355.109 20.8993 361.121 20.8993C367.132 20.8993 372.897 23.2873 377.148 27.538C381.399 31.7887 383.787 37.5538 383.787 43.5652C383.787 49.5766 381.399 55.3418 377.148 59.5925L354.044 82.6961L321.99 50.6416Z" fill="white"/>
<path d="M360.868 21.2637C365.292 21.2632 369.618 22.5747 373.296 25.0323C376.975 27.49 379.843 30.9834 381.536 35.0707C383.229 39.1581 383.672 43.6557 382.809 47.9948C381.945 52.3339 379.815 56.3195 376.686 59.4476L353.712 82.4204L322.076 50.7863L345.05 27.8134C347.123 25.73 349.588 24.0784 352.303 22.9541C355.018 21.8299 357.929 21.2553 360.868 21.2637ZM360.868 20.7749C357.866 20.7705 354.892 21.3593 352.118 22.5077C349.344 23.656 346.824 25.3412 344.703 27.4664L321.401 50.7716L353.726 83.0999L377.033 59.7946C381.319 55.5069 383.726 49.6927 383.726 43.6305C383.726 37.5683 381.319 31.7541 377.033 27.4664C374.912 25.3412 372.392 23.656 369.618 22.5077C366.844 21.3593 363.87 20.7705 360.868 20.7749Z" fill="white"/>
<path d="M334.844 102.194L312.402 124.969L290.449 147.242C286.196 151.556 280.429 153.979 274.416 153.979C268.403 153.979 262.636 151.556 258.383 147.242C254.132 142.926 251.744 137.074 251.744 130.971C251.744 124.869 254.132 119.017 258.383 114.701L280.326 92.4323L302.773 69.6572L334.844 102.194Z" fill="white"/>
<path d="M342.176 95.6152L319.401 118.059L297.133 140.004C294.997 142.11 292.461 143.78 289.669 144.92C286.877 146.06 283.885 146.647 280.863 146.647C277.841 146.647 274.849 146.06 272.057 144.92C269.266 143.78 266.729 142.11 264.593 140.004C262.456 137.898 260.762 135.399 259.605 132.648C258.449 129.898 257.854 126.949 257.854 123.972C257.854 120.995 258.449 118.046 259.605 115.296C260.762 112.545 262.456 110.045 264.593 107.94L286.861 85.9908L309.655 63.5469L342.176 95.6152Z" fill="black"/>
<path d="M313.572 129.538C303.971 129.544 294.741 125.83 287.821 119.176C287.604 118.968 287.387 118.752 287.165 118.535L286.577 117.937C282.886 114.108 280.061 109.531 278.294 104.515C276.527 99.4988 275.858 94.1618 276.334 88.8651C276.808 83.5008 278.431 78.3012 281.093 73.6193C283.754 68.9374 287.392 64.8828 291.759 61.7307L312.936 46.438L322.837 60.145L301.656 75.4377C299.253 77.1735 297.251 79.4064 295.788 81.9845C294.325 84.5626 293.434 87.4255 293.177 90.3785C292.896 93.2621 293.248 96.1723 294.207 98.906C295.167 101.64 296.712 104.131 298.735 106.206C298.86 106.336 298.99 106.471 299.125 106.601L299.545 107.016C301.627 109.04 304.127 110.585 306.868 111.544C309.61 112.503 312.528 112.853 315.418 112.568C318.367 112.302 321.223 111.406 323.795 109.94C326.366 108.474 328.593 106.472 330.323 104.071L345.566 82.9033L359.285 92.7787L344.043 113.946C340.899 118.316 336.851 121.958 332.175 124.624C327.499 127.291 322.304 128.921 316.942 129.403C315.819 129.475 314.691 129.538 313.572 129.538Z" fill="white"/>
<path d="M333.874 50.6424C330.592 47.3606 325.271 47.3606 321.989 50.6424C318.708 53.9241 318.708 59.2448 321.989 62.5266L342.156 82.6934C345.438 85.9751 350.759 85.9752 354.04 82.6934C357.322 79.4117 357.322 74.0909 354.04 70.8092L333.874 50.6424Z" fill="black"/>
<path d="M362.545 92.8623C362.173 92.8627 361.805 92.7913 361.461 92.6522C361.117 92.5132 360.805 92.3093 360.543 92.0522L312.456 45.0558C312.193 44.7989 311.984 44.4938 311.841 44.158C311.699 43.8221 311.625 43.4621 311.625 43.0985C311.625 42.7349 311.698 42.3749 311.84 42.0389C311.982 41.7029 312.191 41.3975 312.454 41.1403C312.716 40.883 313.029 40.6789 313.372 40.5395C313.716 40.4002 314.084 40.3283 314.456 40.3281C314.828 40.3279 315.197 40.3993 315.54 40.5382C315.884 40.6772 316.197 40.8809 316.46 41.1379L364.551 88.139C364.953 88.5255 365.227 89.0201 365.339 89.5598C365.451 90.0994 365.396 90.6595 365.18 91.1682C364.965 91.677 364.599 92.1113 364.129 92.4156C363.66 92.72 363.108 92.8804 362.545 92.8765V92.8623Z" fill="black"/>
<path d="M377.715 38.8503L379.317 36.0089C379.905 34.9599 380.154 33.7543 380.029 32.5581C379.903 31.3618 379.41 30.2339 378.618 29.3294C378.27 28.9377 377.913 28.5558 377.541 28.179C377.165 27.8071 376.783 27.45 376.391 27.1079C375.487 26.3137 374.359 25.8199 373.163 25.6946C371.966 25.5694 370.76 25.8189 369.711 26.4087L366.87 28.0054C366.48 28.2254 366.147 28.5324 365.896 28.9025C365.645 29.2726 365.483 29.6958 365.422 30.1389C365.362 30.5821 365.404 31.0332 365.547 31.4571C365.69 31.881 365.929 32.2661 366.245 32.5824L373.138 39.4801C373.455 39.7961 373.84 40.0346 374.264 40.177C374.688 40.3193 375.14 40.3617 375.583 40.3007C376.026 40.2397 376.449 40.0771 376.819 39.8255C377.189 39.5739 377.496 39.2401 377.715 38.8503Z" fill="#D1D7F3"/>
<path d="M295.306 77.3815L279.278 93.4087L311.329 125.46L327.357 109.432L295.306 77.3815Z" fill="white"/>
<path d="M307.319 49.3335L315.331 41.3216C316.393 40.2591 317.834 39.6623 319.337 39.6623C320.839 39.6623 322.28 40.2591 323.343 41.3216C324.405 42.384 325.002 43.825 325.002 45.3276C325.002 46.8301 324.405 48.271 323.343 49.3335L315.331 57.3454L307.319 49.3335Z" fill="#FFADAE"/>
<path d="M347.388 89.3989L355.4 81.387C356.462 80.3261 357.903 79.7305 359.405 79.7311C360.906 79.7318 362.346 80.3286 363.408 81.3905C364.471 82.4529 365.067 83.8939 365.067 85.3964C365.067 86.8989 364.471 88.3399 363.408 89.4024L355.4 97.4108L347.388 89.3989Z" fill="#FFADAE"/>
<path d="M298.182 40.9946C298.846 40.3959 299.635 39.9209 300.504 39.5968C301.372 39.2728 302.303 39.106 303.243 39.106C304.183 39.106 305.114 39.2728 305.983 39.5968C306.851 39.9209 307.64 40.3959 308.304 40.9946C308.969 41.5925 309.497 42.3025 309.857 43.0841C310.217 43.8657 310.403 44.7035 310.403 45.5496C310.403 46.3957 310.217 47.2335 309.857 48.015C309.497 48.7966 308.969 49.5066 308.304 50.1045" fill="black"/>
<path d="M354.397 97.209C354.995 96.6103 355.705 96.1353 356.486 95.8112C357.268 95.4871 358.106 95.3203 358.952 95.3203C359.798 95.3203 360.636 95.4871 361.417 95.8112C362.199 96.1353 362.909 96.6103 363.507 97.209C364.106 97.8068 364.581 98.5169 364.905 99.2984C365.229 100.08 365.395 100.918 365.395 101.764C365.395 102.61 365.229 103.448 364.905 104.229C364.581 105.011 364.106 105.721 363.507 106.319" fill="black"/>
<path d="M321.915 51.3265C321.835 51.3262 321.755 51.3114 321.68 51.2827L309.594 46.5831C309.434 46.5124 309.306 46.3795 309.237 46.212C309.168 46.0445 309.162 45.8553 309.222 45.6836C309.281 45.5118 309.401 45.3709 309.556 45.2899C309.711 45.2089 309.89 45.1942 310.056 45.2487L322.169 49.9434C322.321 49.9986 322.449 50.109 322.53 50.2548C322.611 50.4006 322.641 50.5722 322.613 50.7389C322.585 50.9055 322.502 51.0562 322.378 51.1639C322.255 51.2716 322.099 51.3293 321.938 51.3265H321.915Z" fill="black"/>
<path d="M358.576 96.5425C358.431 96.5442 358.289 96.4989 358.169 96.4132C358.05 96.3274 357.959 96.2052 357.91 96.0636L353.218 82.8674C353.153 82.6836 353.162 82.4808 353.242 82.3035C353.321 82.1263 353.466 81.9892 353.643 81.9223C353.82 81.8555 354.016 81.8644 354.187 81.9471C354.358 82.0298 354.49 82.1796 354.555 82.3634L359.242 95.5596C359.307 95.7427 359.298 95.9448 359.219 96.1216C359.14 96.2983 358.996 96.4351 358.819 96.5022C358.741 96.5305 358.659 96.5441 358.576 96.5425Z" fill="black"/>
<path d="M342.602 73.3235C342.34 73.3251 342.079 73.2742 341.837 73.1738C341.594 73.0734 341.374 72.9256 341.189 72.7389L331.763 63.2988C331.388 62.9234 331.178 62.4141 331.178 61.8831C331.178 61.352 331.388 60.8428 331.763 60.4673C332.138 60.0918 332.647 59.8809 333.177 59.8809C333.707 59.8809 334.216 60.0918 334.59 60.4673L344.034 69.9073C344.314 70.1871 344.505 70.5438 344.582 70.9321C344.659 71.3205 344.62 71.7231 344.468 72.089C344.317 72.4548 344.06 72.7674 343.731 72.9872C343.403 73.2069 343.016 73.324 342.62 73.3235H342.602Z" fill="#37DA8A"/>
<path d="M307.347 114.873C316.459 114.873 323.845 106.94 323.845 97.1534C323.845 87.367 316.459 79.4336 307.347 79.4336C298.236 79.4336 290.85 87.367 290.85 97.1534C290.85 106.94 298.236 114.873 307.347 114.873Z" fill="#156FFB"/>
</svg>
