<svg width="21" height="17" viewBox="0 0 21 17" fill="none" xmlns="http://www.w3.org/2000/svg">
<path d="M20.3335 2.59116C19.5977 2.91783 18.8068 3.13783 17.9768 3.23699C18.8243 2.72949 19.4752 1.92533 19.781 0.966992C18.9885 1.43699 18.1102 1.77866 17.1752 1.96283C16.4277 1.16533 15.3602 0.666992 14.1802 0.666992C11.531 0.666992 9.58433 3.13866 10.1827 5.70449C6.7735 5.53366 3.75016 3.90033 1.726 1.41783C0.650996 3.26199 1.1685 5.67449 2.99516 6.89616C2.3235 6.87449 1.69016 6.69033 1.13766 6.38283C1.09266 8.28366 2.45516 10.062 4.4285 10.4578C3.851 10.6145 3.2185 10.6512 2.57516 10.5278C3.09683 12.1578 4.61183 13.3437 6.4085 13.377C4.6835 14.7295 2.51016 15.3337 0.333496 15.077C2.14933 16.2412 4.30683 16.9203 6.6235 16.9203C14.2418 16.9203 18.546 10.4862 18.286 4.71533C19.0877 4.13616 19.7835 3.41366 20.3335 2.59116Z" fill="black"/>
</svg>
