<svg width="532" height="376" viewBox="0 0 532 376" fill="none" xmlns="http://www.w3.org/2000/svg">
<path d="M-1.23809e-05 58.5217V19.5073C-1.23809e-05 8.78289 8.71177 0 19.5551 0H60.3337C71.0844 0 79.7961 8.69044 79.7961 19.5073V58.5217C79.7961 103.083 81.8351 117.598 108.341 169.371C149.027 244.904 229.008 296.492 320.853 296.492C377.665 296.492 429.935 276.8 471.085 243.887C478.777 237.785 489.713 238.247 496.664 245.089C506.859 255.258 517.053 265.336 526.321 274.488C534.291 282.347 533.828 295.475 525.209 302.594C469.694 348.45 398.517 376 320.853 376C143.652 376 -1.23809e-05 232.7 -1.23809e-05 55.9331V59.0765C-1.23809e-05 58.8916 -1.23809e-05 58.7066 -1.23809e-05 58.5217Z" fill="#D1D7F3"/>
</svg>
